<mxfile host="65bd71144e">
    <diagram name="Page-1" id="aQ8EzDprhMO_qvLmWi_P">
        <mxGraphModel dx="1265" dy="914" grid="0" gridSize="10" guides="1" tooltips="1" connect="1" arrows="1" fold="1" page="0" pageScale="1" pageWidth="1169" pageHeight="827" background="#ffffff" math="0" shadow="0">
            <root>
                <mxCell id="0"/>
                <mxCell id="1" parent="0"/>
                <mxCell id="F3-TGmnj43T6yVich3fg-30" value="&lt;div&gt;ARE_T_INFO_PIUTANG&lt;/div&gt;" style="shape=table;startSize=30;container=1;collapsible=1;childLayout=tableLayout;fixedRows=1;rowLines=0;fontStyle=1;align=center;resizeLast=1;html=1;rounded=0;shadow=0;swimlaneLine=1;labelBackgroundColor=none;fillColor=#5D7F99;strokeColor=#D0CEE2;fontColor=#1A1A1A;" parent="1" vertex="1">
                    <mxGeometry x="404" y="500" width="180" height="750" as="geometry">
                        <mxRectangle x="510" y="520" width="170" height="30" as="alternateBounds"/>
                    </mxGeometry>
                </mxCell>
                <mxCell id="F3-TGmnj43T6yVich3fg-31" value="" style="shape=tableRow;horizontal=0;startSize=0;swimlaneHead=0;swimlaneBody=0;fillColor=none;collapsible=0;dropTarget=0;points=[[0,0.5],[1,0.5]];portConstraint=eastwest;top=0;left=0;right=0;bottom=1;labelBackgroundColor=none;strokeColor=#D0CEE2;fontColor=#1A1A1A;" parent="F3-TGmnj43T6yVich3fg-30" vertex="1">
                    <mxGeometry y="30" width="180" height="30" as="geometry"/>
                </mxCell>
                <mxCell id="F3-TGmnj43T6yVich3fg-32" value="PK" style="shape=partialRectangle;connectable=0;fillColor=none;top=0;left=0;bottom=0;right=0;fontStyle=1;overflow=hidden;whiteSpace=wrap;html=1;labelBackgroundColor=none;strokeColor=#D0CEE2;fontColor=#1A1A1A;" parent="F3-TGmnj43T6yVich3fg-31" vertex="1">
                    <mxGeometry width="30" height="30" as="geometry">
                        <mxRectangle width="30" height="30" as="alternateBounds"/>
                    </mxGeometry>
                </mxCell>
                <mxCell id="F3-TGmnj43T6yVich3fg-33" value="ID" style="shape=partialRectangle;connectable=0;fillColor=none;top=0;left=0;bottom=0;right=0;align=left;spacingLeft=6;fontStyle=5;overflow=hidden;whiteSpace=wrap;html=1;labelBackgroundColor=none;strokeColor=#D0CEE2;fontColor=#1A1A1A;" parent="F3-TGmnj43T6yVich3fg-31" vertex="1">
                    <mxGeometry x="30" width="150" height="30" as="geometry">
                        <mxRectangle width="150" height="30" as="alternateBounds"/>
                    </mxGeometry>
                </mxCell>
                <mxCell id="F3-TGmnj43T6yVich3fg-34" value="" style="shape=tableRow;horizontal=0;startSize=0;swimlaneHead=0;swimlaneBody=0;fillColor=none;collapsible=0;dropTarget=0;points=[[0,0.5],[1,0.5]];portConstraint=eastwest;top=0;left=0;right=0;bottom=0;labelBackgroundColor=none;strokeColor=#D0CEE2;fontColor=#1A1A1A;" parent="F3-TGmnj43T6yVich3fg-30" vertex="1">
                    <mxGeometry y="60" width="180" height="30" as="geometry"/>
                </mxCell>
                <mxCell id="F3-TGmnj43T6yVich3fg-35" value="" style="shape=partialRectangle;connectable=0;fillColor=none;top=0;left=0;bottom=0;right=0;editable=1;overflow=hidden;whiteSpace=wrap;html=1;labelBackgroundColor=none;strokeColor=#D0CEE2;fontColor=#1A1A1A;" parent="F3-TGmnj43T6yVich3fg-34" vertex="1">
                    <mxGeometry width="30" height="30" as="geometry">
                        <mxRectangle width="30" height="30" as="alternateBounds"/>
                    </mxGeometry>
                </mxCell>
                <mxCell id="F3-TGmnj43T6yVich3fg-36" value="TAHUN_ANGGARAN" style="shape=partialRectangle;connectable=0;fillColor=none;top=0;left=0;bottom=0;right=0;align=left;spacingLeft=6;overflow=hidden;whiteSpace=wrap;html=1;labelBackgroundColor=none;strokeColor=#D0CEE2;fontColor=#1A1A1A;" parent="F3-TGmnj43T6yVich3fg-34" vertex="1">
                    <mxGeometry x="30" width="150" height="30" as="geometry">
                        <mxRectangle width="150" height="30" as="alternateBounds"/>
                    </mxGeometry>
                </mxCell>
                <mxCell id="F3-TGmnj43T6yVich3fg-37" value="" style="shape=tableRow;horizontal=0;startSize=0;swimlaneHead=0;swimlaneBody=0;fillColor=none;collapsible=0;dropTarget=0;points=[[0,0.5],[1,0.5]];portConstraint=eastwest;top=0;left=0;right=0;bottom=0;labelBackgroundColor=none;strokeColor=#D0CEE2;fontColor=#1A1A1A;" parent="F3-TGmnj43T6yVich3fg-30" vertex="1">
                    <mxGeometry y="90" width="180" height="30" as="geometry"/>
                </mxCell>
                <mxCell id="F3-TGmnj43T6yVich3fg-38" value="" style="shape=partialRectangle;connectable=0;fillColor=none;top=0;left=0;bottom=0;right=0;editable=1;overflow=hidden;whiteSpace=wrap;html=1;labelBackgroundColor=none;strokeColor=#D0CEE2;fontColor=#1A1A1A;" parent="F3-TGmnj43T6yVich3fg-37" vertex="1">
                    <mxGeometry width="30" height="30" as="geometry">
                        <mxRectangle width="30" height="30" as="alternateBounds"/>
                    </mxGeometry>
                </mxCell>
                <mxCell id="F3-TGmnj43T6yVich3fg-39" value="KODE_SATKER" style="shape=partialRectangle;connectable=0;fillColor=none;top=0;left=0;bottom=0;right=0;align=left;spacingLeft=6;overflow=hidden;whiteSpace=wrap;html=1;labelBackgroundColor=none;strokeColor=#D0CEE2;fontColor=#1A1A1A;" parent="F3-TGmnj43T6yVich3fg-37" vertex="1">
                    <mxGeometry x="30" width="150" height="30" as="geometry">
                        <mxRectangle width="150" height="30" as="alternateBounds"/>
                    </mxGeometry>
                </mxCell>
                <mxCell id="F3-TGmnj43T6yVich3fg-40" value="" style="shape=tableRow;horizontal=0;startSize=0;swimlaneHead=0;swimlaneBody=0;fillColor=none;collapsible=0;dropTarget=0;points=[[0,0.5],[1,0.5]];portConstraint=eastwest;top=0;left=0;right=0;bottom=0;labelBackgroundColor=none;strokeColor=#D0CEE2;fontColor=#1A1A1A;" parent="F3-TGmnj43T6yVich3fg-30" vertex="1">
                    <mxGeometry y="120" width="180" height="30" as="geometry"/>
                </mxCell>
                <mxCell id="F3-TGmnj43T6yVich3fg-41" value="" style="shape=partialRectangle;connectable=0;fillColor=none;top=0;left=0;bottom=0;right=0;editable=1;overflow=hidden;whiteSpace=wrap;html=1;labelBackgroundColor=none;strokeColor=#D0CEE2;fontColor=#1A1A1A;" parent="F3-TGmnj43T6yVich3fg-40" vertex="1">
                    <mxGeometry width="30" height="30" as="geometry">
                        <mxRectangle width="30" height="30" as="alternateBounds"/>
                    </mxGeometry>
                </mxCell>
                <mxCell id="F3-TGmnj43T6yVich3fg-42" value="JENIS_PIUTANG" style="shape=partialRectangle;connectable=0;fillColor=none;top=0;left=0;bottom=0;right=0;align=left;spacingLeft=6;overflow=hidden;whiteSpace=wrap;html=1;labelBackgroundColor=none;strokeColor=#D0CEE2;fontColor=#1A1A1A;" parent="F3-TGmnj43T6yVich3fg-40" vertex="1">
                    <mxGeometry x="30" width="150" height="30" as="geometry">
                        <mxRectangle width="150" height="30" as="alternateBounds"/>
                    </mxGeometry>
                </mxCell>
                <mxCell id="F3-TGmnj43T6yVich3fg-50" value="" style="shape=tableRow;horizontal=0;startSize=0;swimlaneHead=0;swimlaneBody=0;fillColor=none;collapsible=0;dropTarget=0;points=[[0,0.5],[1,0.5]];portConstraint=eastwest;top=0;left=0;right=0;bottom=0;labelBackgroundColor=none;strokeColor=#D0CEE2;fontColor=#1A1A1A;" parent="F3-TGmnj43T6yVich3fg-30" vertex="1">
                    <mxGeometry y="150" width="180" height="30" as="geometry"/>
                </mxCell>
                <mxCell id="F3-TGmnj43T6yVich3fg-51" value="" style="shape=partialRectangle;connectable=0;fillColor=none;top=0;left=0;bottom=0;right=0;editable=1;overflow=hidden;whiteSpace=wrap;html=1;labelBackgroundColor=none;strokeColor=#D0CEE2;fontColor=#1A1A1A;" parent="F3-TGmnj43T6yVich3fg-50" vertex="1">
                    <mxGeometry width="30" height="30" as="geometry">
                        <mxRectangle width="30" height="30" as="alternateBounds"/>
                    </mxGeometry>
                </mxCell>
                <mxCell id="F3-TGmnj43T6yVich3fg-52" value="KODE_AKUN_PIUTANG" style="shape=partialRectangle;connectable=0;fillColor=none;top=0;left=0;bottom=0;right=0;align=left;spacingLeft=6;overflow=hidden;whiteSpace=wrap;html=1;labelBackgroundColor=none;strokeColor=#D0CEE2;fontColor=#1A1A1A;" parent="F3-TGmnj43T6yVich3fg-50" vertex="1">
                    <mxGeometry x="30" width="150" height="30" as="geometry">
                        <mxRectangle width="150" height="30" as="alternateBounds"/>
                    </mxGeometry>
                </mxCell>
                <mxCell id="F3-TGmnj43T6yVich3fg-53" value="" style="shape=tableRow;horizontal=0;startSize=0;swimlaneHead=0;swimlaneBody=0;fillColor=none;collapsible=0;dropTarget=0;points=[[0,0.5],[1,0.5]];portConstraint=eastwest;top=0;left=0;right=0;bottom=0;labelBackgroundColor=none;strokeColor=#D0CEE2;fontColor=#1A1A1A;" parent="F3-TGmnj43T6yVich3fg-30" vertex="1">
                    <mxGeometry y="180" width="180" height="30" as="geometry"/>
                </mxCell>
                <mxCell id="F3-TGmnj43T6yVich3fg-54" value="" style="shape=partialRectangle;connectable=0;fillColor=none;top=0;left=0;bottom=0;right=0;editable=1;overflow=hidden;whiteSpace=wrap;html=1;labelBackgroundColor=none;strokeColor=#D0CEE2;fontColor=#1A1A1A;" parent="F3-TGmnj43T6yVich3fg-53" vertex="1">
                    <mxGeometry width="30" height="30" as="geometry">
                        <mxRectangle width="30" height="30" as="alternateBounds"/>
                    </mxGeometry>
                </mxCell>
                <mxCell id="F3-TGmnj43T6yVich3fg-55" value="KODE_AKUN_PENDAPATAN" style="shape=partialRectangle;connectable=0;fillColor=none;top=0;left=0;bottom=0;right=0;align=left;spacingLeft=6;overflow=hidden;whiteSpace=wrap;html=1;labelBackgroundColor=none;strokeColor=#D0CEE2;fontColor=#1A1A1A;" parent="F3-TGmnj43T6yVich3fg-53" vertex="1">
                    <mxGeometry x="30" width="150" height="30" as="geometry">
                        <mxRectangle width="150" height="30" as="alternateBounds"/>
                    </mxGeometry>
                </mxCell>
                <mxCell id="F3-TGmnj43T6yVich3fg-56" value="" style="shape=tableRow;horizontal=0;startSize=0;swimlaneHead=0;swimlaneBody=0;fillColor=none;collapsible=0;dropTarget=0;points=[[0,0.5],[1,0.5]];portConstraint=eastwest;top=0;left=0;right=0;bottom=0;labelBackgroundColor=none;strokeColor=#D0CEE2;fontColor=#1A1A1A;" parent="F3-TGmnj43T6yVich3fg-30" vertex="1">
                    <mxGeometry y="210" width="180" height="30" as="geometry"/>
                </mxCell>
                <mxCell id="F3-TGmnj43T6yVich3fg-57" value="" style="shape=partialRectangle;connectable=0;fillColor=none;top=0;left=0;bottom=0;right=0;editable=1;overflow=hidden;whiteSpace=wrap;html=1;labelBackgroundColor=none;strokeColor=#D0CEE2;fontColor=#1A1A1A;" parent="F3-TGmnj43T6yVich3fg-56" vertex="1">
                    <mxGeometry width="30" height="30" as="geometry">
                        <mxRectangle width="30" height="30" as="alternateBounds"/>
                    </mxGeometry>
                </mxCell>
                <mxCell id="F3-TGmnj43T6yVich3fg-58" value="NO_PIUTANG" style="shape=partialRectangle;connectable=0;fillColor=none;top=0;left=0;bottom=0;right=0;align=left;spacingLeft=6;overflow=hidden;whiteSpace=wrap;html=1;labelBackgroundColor=none;strokeColor=#D0CEE2;fontColor=#1A1A1A;" parent="F3-TGmnj43T6yVich3fg-56" vertex="1">
                    <mxGeometry x="30" width="150" height="30" as="geometry">
                        <mxRectangle width="150" height="30" as="alternateBounds"/>
                    </mxGeometry>
                </mxCell>
                <mxCell id="F3-TGmnj43T6yVich3fg-81" value="" style="shape=tableRow;horizontal=0;startSize=0;swimlaneHead=0;swimlaneBody=0;fillColor=none;collapsible=0;dropTarget=0;points=[[0,0.5],[1,0.5]];portConstraint=eastwest;top=0;left=0;right=0;bottom=0;labelBackgroundColor=none;strokeColor=#D0CEE2;fontColor=#1A1A1A;" parent="F3-TGmnj43T6yVich3fg-30" vertex="1">
                    <mxGeometry y="240" width="180" height="30" as="geometry"/>
                </mxCell>
                <mxCell id="F3-TGmnj43T6yVich3fg-82" value="" style="shape=partialRectangle;connectable=0;fillColor=none;top=0;left=0;bottom=0;right=0;editable=1;overflow=hidden;whiteSpace=wrap;html=1;labelBackgroundColor=none;strokeColor=#D0CEE2;fontColor=#1A1A1A;" parent="F3-TGmnj43T6yVich3fg-81" vertex="1">
                    <mxGeometry width="30" height="30" as="geometry">
                        <mxRectangle width="30" height="30" as="alternateBounds"/>
                    </mxGeometry>
                </mxCell>
                <mxCell id="F3-TGmnj43T6yVich3fg-83" value="NO_SK" style="shape=partialRectangle;connectable=0;fillColor=none;top=0;left=0;bottom=0;right=0;align=left;spacingLeft=6;overflow=hidden;whiteSpace=wrap;html=1;labelBackgroundColor=none;strokeColor=#D0CEE2;fontColor=#1A1A1A;" parent="F3-TGmnj43T6yVich3fg-81" vertex="1">
                    <mxGeometry x="30" width="150" height="30" as="geometry">
                        <mxRectangle width="150" height="30" as="alternateBounds"/>
                    </mxGeometry>
                </mxCell>
                <mxCell id="F3-TGmnj43T6yVich3fg-84" value="" style="shape=tableRow;horizontal=0;startSize=0;swimlaneHead=0;swimlaneBody=0;fillColor=none;collapsible=0;dropTarget=0;points=[[0,0.5],[1,0.5]];portConstraint=eastwest;top=0;left=0;right=0;bottom=0;labelBackgroundColor=none;strokeColor=#D0CEE2;fontColor=#1A1A1A;" parent="F3-TGmnj43T6yVich3fg-30" vertex="1">
                    <mxGeometry y="270" width="180" height="30" as="geometry"/>
                </mxCell>
                <mxCell id="F3-TGmnj43T6yVich3fg-85" value="" style="shape=partialRectangle;connectable=0;fillColor=none;top=0;left=0;bottom=0;right=0;editable=1;overflow=hidden;whiteSpace=wrap;html=1;labelBackgroundColor=none;strokeColor=#D0CEE2;fontColor=#1A1A1A;" parent="F3-TGmnj43T6yVich3fg-84" vertex="1">
                    <mxGeometry width="30" height="30" as="geometry">
                        <mxRectangle width="30" height="30" as="alternateBounds"/>
                    </mxGeometry>
                </mxCell>
                <mxCell id="F3-TGmnj43T6yVich3fg-86" value="TANGGAL_SK" style="shape=partialRectangle;connectable=0;fillColor=none;top=0;left=0;bottom=0;right=0;align=left;spacingLeft=6;overflow=hidden;whiteSpace=wrap;html=1;labelBackgroundColor=none;strokeColor=#D0CEE2;fontColor=#1A1A1A;" parent="F3-TGmnj43T6yVich3fg-84" vertex="1">
                    <mxGeometry x="30" width="150" height="30" as="geometry">
                        <mxRectangle width="150" height="30" as="alternateBounds"/>
                    </mxGeometry>
                </mxCell>
                <mxCell id="F3-TGmnj43T6yVich3fg-87" value="" style="shape=tableRow;horizontal=0;startSize=0;swimlaneHead=0;swimlaneBody=0;fillColor=none;collapsible=0;dropTarget=0;points=[[0,0.5],[1,0.5]];portConstraint=eastwest;top=0;left=0;right=0;bottom=0;labelBackgroundColor=none;strokeColor=#D0CEE2;fontColor=#1A1A1A;" parent="F3-TGmnj43T6yVich3fg-30" vertex="1">
                    <mxGeometry y="300" width="180" height="30" as="geometry"/>
                </mxCell>
                <mxCell id="F3-TGmnj43T6yVich3fg-88" value="" style="shape=partialRectangle;connectable=0;fillColor=none;top=0;left=0;bottom=0;right=0;editable=1;overflow=hidden;whiteSpace=wrap;html=1;labelBackgroundColor=none;strokeColor=#D0CEE2;fontColor=#1A1A1A;" parent="F3-TGmnj43T6yVich3fg-87" vertex="1">
                    <mxGeometry width="30" height="30" as="geometry">
                        <mxRectangle width="30" height="30" as="alternateBounds"/>
                    </mxGeometry>
                </mxCell>
                <mxCell id="F3-TGmnj43T6yVich3fg-89" value="KETERANGAN_PIUTANG" style="shape=partialRectangle;connectable=0;fillColor=none;top=0;left=0;bottom=0;right=0;align=left;spacingLeft=6;overflow=hidden;whiteSpace=wrap;html=1;labelBackgroundColor=none;strokeColor=#D0CEE2;fontColor=#1A1A1A;" parent="F3-TGmnj43T6yVich3fg-87" vertex="1">
                    <mxGeometry x="30" width="150" height="30" as="geometry">
                        <mxRectangle width="150" height="30" as="alternateBounds"/>
                    </mxGeometry>
                </mxCell>
                <mxCell id="F3-TGmnj43T6yVich3fg-90" value="" style="shape=tableRow;horizontal=0;startSize=0;swimlaneHead=0;swimlaneBody=0;fillColor=none;collapsible=0;dropTarget=0;points=[[0,0.5],[1,0.5]];portConstraint=eastwest;top=0;left=0;right=0;bottom=0;labelBackgroundColor=none;strokeColor=#D0CEE2;fontColor=#1A1A1A;" parent="F3-TGmnj43T6yVich3fg-30" vertex="1">
                    <mxGeometry y="330" width="180" height="30" as="geometry"/>
                </mxCell>
                <mxCell id="F3-TGmnj43T6yVich3fg-91" value="" style="shape=partialRectangle;connectable=0;fillColor=none;top=0;left=0;bottom=0;right=0;editable=1;overflow=hidden;whiteSpace=wrap;html=1;labelBackgroundColor=none;strokeColor=#D0CEE2;fontColor=#1A1A1A;" parent="F3-TGmnj43T6yVich3fg-90" vertex="1">
                    <mxGeometry width="30" height="30" as="geometry">
                        <mxRectangle width="30" height="30" as="alternateBounds"/>
                    </mxGeometry>
                </mxCell>
                <mxCell id="F3-TGmnj43T6yVich3fg-92" value="TANGGAL_MULAI" style="shape=partialRectangle;connectable=0;fillColor=none;top=0;left=0;bottom=0;right=0;align=left;spacingLeft=6;overflow=hidden;whiteSpace=wrap;html=1;labelBackgroundColor=none;strokeColor=#D0CEE2;fontColor=#1A1A1A;" parent="F3-TGmnj43T6yVich3fg-90" vertex="1">
                    <mxGeometry x="30" width="150" height="30" as="geometry">
                        <mxRectangle width="150" height="30" as="alternateBounds"/>
                    </mxGeometry>
                </mxCell>
                <mxCell id="F3-TGmnj43T6yVich3fg-93" value="" style="shape=tableRow;horizontal=0;startSize=0;swimlaneHead=0;swimlaneBody=0;fillColor=none;collapsible=0;dropTarget=0;points=[[0,0.5],[1,0.5]];portConstraint=eastwest;top=0;left=0;right=0;bottom=0;labelBackgroundColor=none;strokeColor=#D0CEE2;fontColor=#1A1A1A;" parent="F3-TGmnj43T6yVich3fg-30" vertex="1">
                    <mxGeometry y="360" width="180" height="30" as="geometry"/>
                </mxCell>
                <mxCell id="F3-TGmnj43T6yVich3fg-94" value="" style="shape=partialRectangle;connectable=0;fillColor=none;top=0;left=0;bottom=0;right=0;editable=1;overflow=hidden;whiteSpace=wrap;html=1;labelBackgroundColor=none;strokeColor=#D0CEE2;fontColor=#1A1A1A;" parent="F3-TGmnj43T6yVich3fg-93" vertex="1">
                    <mxGeometry width="30" height="30" as="geometry">
                        <mxRectangle width="30" height="30" as="alternateBounds"/>
                    </mxGeometry>
                </mxCell>
                <mxCell id="F3-TGmnj43T6yVich3fg-95" value="TANGGAL_JATUH_TEMPO" style="shape=partialRectangle;connectable=0;fillColor=none;top=0;left=0;bottom=0;right=0;align=left;spacingLeft=6;overflow=hidden;whiteSpace=wrap;html=1;labelBackgroundColor=none;strokeColor=#D0CEE2;fontColor=#1A1A1A;" parent="F3-TGmnj43T6yVich3fg-93" vertex="1">
                    <mxGeometry x="30" width="150" height="30" as="geometry">
                        <mxRectangle width="150" height="30" as="alternateBounds"/>
                    </mxGeometry>
                </mxCell>
                <mxCell id="F3-TGmnj43T6yVich3fg-96" value="" style="shape=tableRow;horizontal=0;startSize=0;swimlaneHead=0;swimlaneBody=0;fillColor=none;collapsible=0;dropTarget=0;points=[[0,0.5],[1,0.5]];portConstraint=eastwest;top=0;left=0;right=0;bottom=0;labelBackgroundColor=none;strokeColor=#D0CEE2;fontColor=#1A1A1A;" parent="F3-TGmnj43T6yVich3fg-30" vertex="1">
                    <mxGeometry y="390" width="180" height="30" as="geometry"/>
                </mxCell>
                <mxCell id="F3-TGmnj43T6yVich3fg-97" value="" style="shape=partialRectangle;connectable=0;fillColor=none;top=0;left=0;bottom=0;right=0;editable=1;overflow=hidden;whiteSpace=wrap;html=1;labelBackgroundColor=none;strokeColor=#D0CEE2;fontColor=#1A1A1A;" parent="F3-TGmnj43T6yVich3fg-96" vertex="1">
                    <mxGeometry width="30" height="30" as="geometry">
                        <mxRectangle width="30" height="30" as="alternateBounds"/>
                    </mxGeometry>
                </mxCell>
                <mxCell id="F3-TGmnj43T6yVich3fg-98" value="TANGGAL_PEMBUKUAN" style="shape=partialRectangle;connectable=0;fillColor=none;top=0;left=0;bottom=0;right=0;align=left;spacingLeft=6;overflow=hidden;whiteSpace=wrap;html=1;labelBackgroundColor=none;strokeColor=#D0CEE2;fontColor=#1A1A1A;" parent="F3-TGmnj43T6yVich3fg-96" vertex="1">
                    <mxGeometry x="30" width="150" height="30" as="geometry">
                        <mxRectangle width="150" height="30" as="alternateBounds"/>
                    </mxGeometry>
                </mxCell>
                <mxCell id="F3-TGmnj43T6yVich3fg-99" value="" style="shape=tableRow;horizontal=0;startSize=0;swimlaneHead=0;swimlaneBody=0;fillColor=none;collapsible=0;dropTarget=0;points=[[0,0.5],[1,0.5]];portConstraint=eastwest;top=0;left=0;right=0;bottom=0;labelBackgroundColor=none;strokeColor=#D0CEE2;fontColor=#1A1A1A;" parent="F3-TGmnj43T6yVich3fg-30" vertex="1">
                    <mxGeometry y="420" width="180" height="30" as="geometry"/>
                </mxCell>
                <mxCell id="F3-TGmnj43T6yVich3fg-100" value="" style="shape=partialRectangle;connectable=0;fillColor=none;top=0;left=0;bottom=0;right=0;editable=1;overflow=hidden;whiteSpace=wrap;html=1;labelBackgroundColor=none;strokeColor=#D0CEE2;fontColor=#1A1A1A;" parent="F3-TGmnj43T6yVich3fg-99" vertex="1">
                    <mxGeometry width="30" height="30" as="geometry">
                        <mxRectangle width="30" height="30" as="alternateBounds"/>
                    </mxGeometry>
                </mxCell>
                <mxCell id="F3-TGmnj43T6yVich3fg-101" value="STATUS_PIUTANG_AWAL" style="shape=partialRectangle;connectable=0;fillColor=none;top=0;left=0;bottom=0;right=0;align=left;spacingLeft=6;overflow=hidden;whiteSpace=wrap;html=1;labelBackgroundColor=none;strokeColor=#D0CEE2;fontColor=#1A1A1A;" parent="F3-TGmnj43T6yVich3fg-99" vertex="1">
                    <mxGeometry x="30" width="150" height="30" as="geometry">
                        <mxRectangle width="150" height="30" as="alternateBounds"/>
                    </mxGeometry>
                </mxCell>
                <mxCell id="F3-TGmnj43T6yVich3fg-102" value="" style="shape=tableRow;horizontal=0;startSize=0;swimlaneHead=0;swimlaneBody=0;fillColor=none;collapsible=0;dropTarget=0;points=[[0,0.5],[1,0.5]];portConstraint=eastwest;top=0;left=0;right=0;bottom=0;labelBackgroundColor=none;strokeColor=#D0CEE2;fontColor=#1A1A1A;" parent="F3-TGmnj43T6yVich3fg-30" vertex="1">
                    <mxGeometry y="450" width="180" height="30" as="geometry"/>
                </mxCell>
                <mxCell id="F3-TGmnj43T6yVich3fg-103" value="" style="shape=partialRectangle;connectable=0;fillColor=none;top=0;left=0;bottom=0;right=0;editable=1;overflow=hidden;whiteSpace=wrap;html=1;labelBackgroundColor=none;strokeColor=#D0CEE2;fontColor=#1A1A1A;" parent="F3-TGmnj43T6yVich3fg-102" vertex="1">
                    <mxGeometry width="30" height="30" as="geometry">
                        <mxRectangle width="30" height="30" as="alternateBounds"/>
                    </mxGeometry>
                </mxCell>
                <mxCell id="F3-TGmnj43T6yVich3fg-104" value="NILAI_PIUTANG" style="shape=partialRectangle;connectable=0;fillColor=none;top=0;left=0;bottom=0;right=0;align=left;spacingLeft=6;overflow=hidden;whiteSpace=wrap;html=1;labelBackgroundColor=none;strokeColor=#D0CEE2;fontColor=#1A1A1A;" parent="F3-TGmnj43T6yVich3fg-102" vertex="1">
                    <mxGeometry x="30" width="150" height="30" as="geometry">
                        <mxRectangle width="150" height="30" as="alternateBounds"/>
                    </mxGeometry>
                </mxCell>
                <mxCell id="F3-TGmnj43T6yVich3fg-105" value="" style="shape=tableRow;horizontal=0;startSize=0;swimlaneHead=0;swimlaneBody=0;fillColor=none;collapsible=0;dropTarget=0;points=[[0,0.5],[1,0.5]];portConstraint=eastwest;top=0;left=0;right=0;bottom=0;labelBackgroundColor=none;strokeColor=#D0CEE2;fontColor=#1A1A1A;" parent="F3-TGmnj43T6yVich3fg-30" vertex="1">
                    <mxGeometry y="480" width="180" height="30" as="geometry"/>
                </mxCell>
                <mxCell id="F3-TGmnj43T6yVich3fg-106" value="" style="shape=partialRectangle;connectable=0;fillColor=none;top=0;left=0;bottom=0;right=0;editable=1;overflow=hidden;whiteSpace=wrap;html=1;labelBackgroundColor=none;strokeColor=#D0CEE2;fontColor=#1A1A1A;" parent="F3-TGmnj43T6yVich3fg-105" vertex="1">
                    <mxGeometry width="30" height="30" as="geometry">
                        <mxRectangle width="30" height="30" as="alternateBounds"/>
                    </mxGeometry>
                </mxCell>
                <mxCell id="F3-TGmnj43T6yVich3fg-107" value="MUTASI_TM" style="shape=partialRectangle;connectable=0;fillColor=none;top=0;left=0;bottom=0;right=0;align=left;spacingLeft=6;overflow=hidden;whiteSpace=wrap;html=1;labelBackgroundColor=none;strokeColor=#D0CEE2;fontColor=#1A1A1A;" parent="F3-TGmnj43T6yVich3fg-105" vertex="1">
                    <mxGeometry x="30" width="150" height="30" as="geometry">
                        <mxRectangle width="150" height="30" as="alternateBounds"/>
                    </mxGeometry>
                </mxCell>
                <mxCell id="F3-TGmnj43T6yVich3fg-108" value="" style="shape=tableRow;horizontal=0;startSize=0;swimlaneHead=0;swimlaneBody=0;fillColor=none;collapsible=0;dropTarget=0;points=[[0,0.5],[1,0.5]];portConstraint=eastwest;top=0;left=0;right=0;bottom=0;labelBackgroundColor=none;strokeColor=#D0CEE2;fontColor=#1A1A1A;" parent="F3-TGmnj43T6yVich3fg-30" vertex="1">
                    <mxGeometry y="510" width="180" height="30" as="geometry"/>
                </mxCell>
                <mxCell id="F3-TGmnj43T6yVich3fg-109" value="" style="shape=partialRectangle;connectable=0;fillColor=none;top=0;left=0;bottom=0;right=0;editable=1;overflow=hidden;whiteSpace=wrap;html=1;labelBackgroundColor=none;strokeColor=#D0CEE2;fontColor=#1A1A1A;" parent="F3-TGmnj43T6yVich3fg-108" vertex="1">
                    <mxGeometry width="30" height="30" as="geometry">
                        <mxRectangle width="30" height="30" as="alternateBounds"/>
                    </mxGeometry>
                </mxCell>
                <mxCell id="F3-TGmnj43T6yVich3fg-110" value="NILAI_AGUNAN" style="shape=partialRectangle;connectable=0;fillColor=none;top=0;left=0;bottom=0;right=0;align=left;spacingLeft=6;overflow=hidden;whiteSpace=wrap;html=1;labelBackgroundColor=none;strokeColor=#D0CEE2;fontColor=#1A1A1A;" parent="F3-TGmnj43T6yVich3fg-108" vertex="1">
                    <mxGeometry x="30" width="150" height="30" as="geometry">
                        <mxRectangle width="150" height="30" as="alternateBounds"/>
                    </mxGeometry>
                </mxCell>
                <mxCell id="F3-TGmnj43T6yVich3fg-111" value="" style="shape=tableRow;horizontal=0;startSize=0;swimlaneHead=0;swimlaneBody=0;fillColor=none;collapsible=0;dropTarget=0;points=[[0,0.5],[1,0.5]];portConstraint=eastwest;top=0;left=0;right=0;bottom=0;labelBackgroundColor=none;strokeColor=#D0CEE2;fontColor=#1A1A1A;" parent="F3-TGmnj43T6yVich3fg-30" vertex="1">
                    <mxGeometry y="540" width="180" height="30" as="geometry"/>
                </mxCell>
                <mxCell id="F3-TGmnj43T6yVich3fg-112" value="" style="shape=partialRectangle;connectable=0;fillColor=none;top=0;left=0;bottom=0;right=0;editable=1;overflow=hidden;whiteSpace=wrap;html=1;labelBackgroundColor=none;strokeColor=#D0CEE2;fontColor=#1A1A1A;" parent="F3-TGmnj43T6yVich3fg-111" vertex="1">
                    <mxGeometry width="30" height="30" as="geometry">
                        <mxRectangle width="30" height="30" as="alternateBounds"/>
                    </mxGeometry>
                </mxCell>
                <mxCell id="F3-TGmnj43T6yVich3fg-113" value="NILAI_AGUNAN_SITAAN" style="shape=partialRectangle;connectable=0;fillColor=none;top=0;left=0;bottom=0;right=0;align=left;spacingLeft=6;overflow=hidden;whiteSpace=wrap;html=1;labelBackgroundColor=none;strokeColor=#D0CEE2;fontColor=#1A1A1A;" parent="F3-TGmnj43T6yVich3fg-111" vertex="1">
                    <mxGeometry x="30" width="150" height="30" as="geometry">
                        <mxRectangle width="150" height="30" as="alternateBounds"/>
                    </mxGeometry>
                </mxCell>
                <mxCell id="F3-TGmnj43T6yVich3fg-114" value="" style="shape=tableRow;horizontal=0;startSize=0;swimlaneHead=0;swimlaneBody=0;fillColor=none;collapsible=0;dropTarget=0;points=[[0,0.5],[1,0.5]];portConstraint=eastwest;top=0;left=0;right=0;bottom=0;labelBackgroundColor=none;strokeColor=#D0CEE2;fontColor=#1A1A1A;" parent="F3-TGmnj43T6yVich3fg-30" vertex="1">
                    <mxGeometry y="570" width="180" height="30" as="geometry"/>
                </mxCell>
                <mxCell id="F3-TGmnj43T6yVich3fg-115" value="" style="shape=partialRectangle;connectable=0;fillColor=none;top=0;left=0;bottom=0;right=0;editable=1;overflow=hidden;whiteSpace=wrap;html=1;labelBackgroundColor=none;strokeColor=#D0CEE2;fontColor=#1A1A1A;" parent="F3-TGmnj43T6yVich3fg-114" vertex="1">
                    <mxGeometry width="30" height="30" as="geometry">
                        <mxRectangle width="30" height="30" as="alternateBounds"/>
                    </mxGeometry>
                </mxCell>
                <mxCell id="F3-TGmnj43T6yVich3fg-116" value="KETERANGAN_AGUNAN" style="shape=partialRectangle;connectable=0;fillColor=none;top=0;left=0;bottom=0;right=0;align=left;spacingLeft=6;overflow=hidden;whiteSpace=wrap;html=1;labelBackgroundColor=none;strokeColor=#D0CEE2;fontColor=#1A1A1A;" parent="F3-TGmnj43T6yVich3fg-114" vertex="1">
                    <mxGeometry x="30" width="150" height="30" as="geometry">
                        <mxRectangle width="150" height="30" as="alternateBounds"/>
                    </mxGeometry>
                </mxCell>
                <mxCell id="F3-TGmnj43T6yVich3fg-117" value="" style="shape=tableRow;horizontal=0;startSize=0;swimlaneHead=0;swimlaneBody=0;fillColor=none;collapsible=0;dropTarget=0;points=[[0,0.5],[1,0.5]];portConstraint=eastwest;top=0;left=0;right=0;bottom=0;labelBackgroundColor=none;strokeColor=#D0CEE2;fontColor=#1A1A1A;" parent="F3-TGmnj43T6yVich3fg-30" vertex="1">
                    <mxGeometry y="600" width="180" height="30" as="geometry"/>
                </mxCell>
                <mxCell id="F3-TGmnj43T6yVich3fg-118" value="" style="shape=partialRectangle;connectable=0;fillColor=none;top=0;left=0;bottom=0;right=0;editable=1;overflow=hidden;whiteSpace=wrap;html=1;labelBackgroundColor=none;strokeColor=#D0CEE2;fontColor=#1A1A1A;" parent="F3-TGmnj43T6yVich3fg-117" vertex="1">
                    <mxGeometry width="30" height="30" as="geometry">
                        <mxRectangle width="30" height="30" as="alternateBounds"/>
                    </mxGeometry>
                </mxCell>
                <mxCell id="F3-TGmnj43T6yVich3fg-119" value="MUTASI_PENYISIHAN_AWAL" style="shape=partialRectangle;connectable=0;fillColor=none;top=0;left=0;bottom=0;right=0;align=left;spacingLeft=6;overflow=hidden;whiteSpace=wrap;html=1;labelBackgroundColor=none;strokeColor=#D0CEE2;fontColor=#1A1A1A;" parent="F3-TGmnj43T6yVich3fg-117" vertex="1">
                    <mxGeometry x="30" width="150" height="30" as="geometry">
                        <mxRectangle width="150" height="30" as="alternateBounds"/>
                    </mxGeometry>
                </mxCell>
                <mxCell id="F3-TGmnj43T6yVich3fg-120" value="" style="shape=tableRow;horizontal=0;startSize=0;swimlaneHead=0;swimlaneBody=0;fillColor=none;collapsible=0;dropTarget=0;points=[[0,0.5],[1,0.5]];portConstraint=eastwest;top=0;left=0;right=0;bottom=0;labelBackgroundColor=none;strokeColor=#D0CEE2;fontColor=#1A1A1A;" parent="F3-TGmnj43T6yVich3fg-30" vertex="1">
                    <mxGeometry y="630" width="180" height="30" as="geometry"/>
                </mxCell>
                <mxCell id="F3-TGmnj43T6yVich3fg-121" value="" style="shape=partialRectangle;connectable=0;fillColor=none;top=0;left=0;bottom=0;right=0;editable=1;overflow=hidden;whiteSpace=wrap;html=1;labelBackgroundColor=none;strokeColor=#D0CEE2;fontColor=#1A1A1A;" parent="F3-TGmnj43T6yVich3fg-120" vertex="1">
                    <mxGeometry width="30" height="30" as="geometry">
                        <mxRectangle width="30" height="30" as="alternateBounds"/>
                    </mxGeometry>
                </mxCell>
                <mxCell id="F3-TGmnj43T6yVich3fg-122" value="NO_REF_GL_PIUTANG" style="shape=partialRectangle;connectable=0;fillColor=none;top=0;left=0;bottom=0;right=0;align=left;spacingLeft=6;overflow=hidden;whiteSpace=wrap;html=1;labelBackgroundColor=none;strokeColor=#D0CEE2;fontColor=#1A1A1A;" parent="F3-TGmnj43T6yVich3fg-120" vertex="1">
                    <mxGeometry x="30" width="150" height="30" as="geometry">
                        <mxRectangle width="150" height="30" as="alternateBounds"/>
                    </mxGeometry>
                </mxCell>
                <mxCell id="F3-TGmnj43T6yVich3fg-123" value="" style="shape=tableRow;horizontal=0;startSize=0;swimlaneHead=0;swimlaneBody=0;fillColor=none;collapsible=0;dropTarget=0;points=[[0,0.5],[1,0.5]];portConstraint=eastwest;top=0;left=0;right=0;bottom=0;labelBackgroundColor=none;strokeColor=#D0CEE2;fontColor=#1A1A1A;" parent="F3-TGmnj43T6yVich3fg-30" vertex="1">
                    <mxGeometry y="660" width="180" height="30" as="geometry"/>
                </mxCell>
                <mxCell id="F3-TGmnj43T6yVich3fg-124" value="" style="shape=partialRectangle;connectable=0;fillColor=none;top=0;left=0;bottom=0;right=0;editable=1;overflow=hidden;whiteSpace=wrap;html=1;labelBackgroundColor=none;strokeColor=#D0CEE2;fontColor=#1A1A1A;" parent="F3-TGmnj43T6yVich3fg-123" vertex="1">
                    <mxGeometry width="30" height="30" as="geometry">
                        <mxRectangle width="30" height="30" as="alternateBounds"/>
                    </mxGeometry>
                </mxCell>
                <mxCell id="F3-TGmnj43T6yVich3fg-125" value="NO_REF_GL_PENYISIHAN" style="shape=partialRectangle;connectable=0;fillColor=none;top=0;left=0;bottom=0;right=0;align=left;spacingLeft=6;overflow=hidden;whiteSpace=wrap;html=1;labelBackgroundColor=none;strokeColor=#D0CEE2;fontColor=#1A1A1A;" parent="F3-TGmnj43T6yVich3fg-123" vertex="1">
                    <mxGeometry x="30" width="150" height="30" as="geometry">
                        <mxRectangle width="150" height="30" as="alternateBounds"/>
                    </mxGeometry>
                </mxCell>
                <mxCell id="F3-TGmnj43T6yVich3fg-126" value="" style="shape=tableRow;horizontal=0;startSize=0;swimlaneHead=0;swimlaneBody=0;fillColor=none;collapsible=0;dropTarget=0;points=[[0,0.5],[1,0.5]];portConstraint=eastwest;top=0;left=0;right=0;bottom=0;labelBackgroundColor=none;strokeColor=#D0CEE2;fontColor=#1A1A1A;" parent="F3-TGmnj43T6yVich3fg-30" vertex="1">
                    <mxGeometry y="690" width="180" height="30" as="geometry"/>
                </mxCell>
                <mxCell id="F3-TGmnj43T6yVich3fg-127" value="" style="shape=partialRectangle;connectable=0;fillColor=none;top=0;left=0;bottom=0;right=0;editable=1;overflow=hidden;whiteSpace=wrap;html=1;labelBackgroundColor=none;strokeColor=#D0CEE2;fontColor=#1A1A1A;" parent="F3-TGmnj43T6yVich3fg-126" vertex="1">
                    <mxGeometry width="30" height="30" as="geometry">
                        <mxRectangle width="30" height="30" as="alternateBounds"/>
                    </mxGeometry>
                </mxCell>
                <mxCell id="F3-TGmnj43T6yVich3fg-128" value="NO_SKTL" style="shape=partialRectangle;connectable=0;fillColor=none;top=0;left=0;bottom=0;right=0;align=left;spacingLeft=6;overflow=hidden;whiteSpace=wrap;html=1;labelBackgroundColor=none;strokeColor=#D0CEE2;fontColor=#1A1A1A;" parent="F3-TGmnj43T6yVich3fg-126" vertex="1">
                    <mxGeometry x="30" width="150" height="30" as="geometry">
                        <mxRectangle width="150" height="30" as="alternateBounds"/>
                    </mxGeometry>
                </mxCell>
                <mxCell id="F3-TGmnj43T6yVich3fg-129" value="" style="shape=tableRow;horizontal=0;startSize=0;swimlaneHead=0;swimlaneBody=0;fillColor=none;collapsible=0;dropTarget=0;points=[[0,0.5],[1,0.5]];portConstraint=eastwest;top=0;left=0;right=0;bottom=0;labelBackgroundColor=none;strokeColor=#D0CEE2;fontColor=#1A1A1A;" parent="F3-TGmnj43T6yVich3fg-30" vertex="1">
                    <mxGeometry y="720" width="180" height="30" as="geometry"/>
                </mxCell>
                <mxCell id="F3-TGmnj43T6yVich3fg-130" value="" style="shape=partialRectangle;connectable=0;fillColor=none;top=0;left=0;bottom=0;right=0;editable=1;overflow=hidden;whiteSpace=wrap;html=1;labelBackgroundColor=none;strokeColor=#D0CEE2;fontColor=#1A1A1A;" parent="F3-TGmnj43T6yVich3fg-129" vertex="1">
                    <mxGeometry width="30" height="30" as="geometry">
                        <mxRectangle width="30" height="30" as="alternateBounds"/>
                    </mxGeometry>
                </mxCell>
                <mxCell id="F3-TGmnj43T6yVich3fg-131" value="TANGGAL_SKTL" style="shape=partialRectangle;connectable=0;fillColor=none;top=0;left=0;bottom=0;right=0;align=left;spacingLeft=6;overflow=hidden;whiteSpace=wrap;html=1;labelBackgroundColor=none;strokeColor=#D0CEE2;fontColor=#1A1A1A;" parent="F3-TGmnj43T6yVich3fg-129" vertex="1">
                    <mxGeometry x="30" width="150" height="30" as="geometry">
                        <mxRectangle width="150" height="30" as="alternateBounds"/>
                    </mxGeometry>
                </mxCell>
                <mxCell id="F3-TGmnj43T6yVich3fg-156" value="ARE_T_KOREKSI_PIUTANG" style="shape=table;startSize=30;container=1;collapsible=1;childLayout=tableLayout;fixedRows=1;rowLines=0;fontStyle=1;align=center;resizeLast=1;html=1;labelBackgroundColor=none;fillColor=#5D7F99;strokeColor=#D0CEE2;fontColor=#1A1A1A;" parent="1" vertex="1">
                    <mxGeometry x="50" y="400" width="180" height="510" as="geometry">
                        <mxRectangle x="70" y="320" width="200" height="30" as="alternateBounds"/>
                    </mxGeometry>
                </mxCell>
                <mxCell id="F3-TGmnj43T6yVich3fg-157" value="" style="shape=tableRow;horizontal=0;startSize=0;swimlaneHead=0;swimlaneBody=0;fillColor=none;collapsible=0;dropTarget=0;points=[[0,0.5],[1,0.5]];portConstraint=eastwest;top=0;left=0;right=0;bottom=1;labelBackgroundColor=none;strokeColor=#D0CEE2;fontColor=#1A1A1A;" parent="F3-TGmnj43T6yVich3fg-156" vertex="1">
                    <mxGeometry y="30" width="180" height="30" as="geometry"/>
                </mxCell>
                <mxCell id="F3-TGmnj43T6yVich3fg-158" value="PK" style="shape=partialRectangle;connectable=0;fillColor=none;top=0;left=0;bottom=0;right=0;fontStyle=1;overflow=hidden;whiteSpace=wrap;html=1;labelBackgroundColor=none;strokeColor=#D0CEE2;fontColor=#1A1A1A;" parent="F3-TGmnj43T6yVich3fg-157" vertex="1">
                    <mxGeometry width="30" height="30" as="geometry">
                        <mxRectangle width="30" height="30" as="alternateBounds"/>
                    </mxGeometry>
                </mxCell>
                <mxCell id="F3-TGmnj43T6yVich3fg-159" value="ID" style="shape=partialRectangle;connectable=0;fillColor=none;top=0;left=0;bottom=0;right=0;align=left;spacingLeft=6;fontStyle=5;overflow=hidden;whiteSpace=wrap;html=1;labelBackgroundColor=none;strokeColor=#D0CEE2;fontColor=#1A1A1A;" parent="F3-TGmnj43T6yVich3fg-157" vertex="1">
                    <mxGeometry x="30" width="150" height="30" as="geometry">
                        <mxRectangle width="150" height="30" as="alternateBounds"/>
                    </mxGeometry>
                </mxCell>
                <mxCell id="F3-TGmnj43T6yVich3fg-160" value="" style="shape=tableRow;horizontal=0;startSize=0;swimlaneHead=0;swimlaneBody=0;fillColor=none;collapsible=0;dropTarget=0;points=[[0,0.5],[1,0.5]];portConstraint=eastwest;top=0;left=0;right=0;bottom=0;labelBackgroundColor=none;strokeColor=#D0CEE2;fontColor=#1A1A1A;" parent="F3-TGmnj43T6yVich3fg-156" vertex="1">
                    <mxGeometry y="60" width="180" height="30" as="geometry"/>
                </mxCell>
                <mxCell id="F3-TGmnj43T6yVich3fg-161" value="" style="shape=partialRectangle;connectable=0;fillColor=none;top=0;left=0;bottom=0;right=0;editable=1;overflow=hidden;whiteSpace=wrap;html=1;labelBackgroundColor=none;strokeColor=#D0CEE2;fontColor=#1A1A1A;" parent="F3-TGmnj43T6yVich3fg-160" vertex="1">
                    <mxGeometry width="30" height="30" as="geometry">
                        <mxRectangle width="30" height="30" as="alternateBounds"/>
                    </mxGeometry>
                </mxCell>
                <mxCell id="F3-TGmnj43T6yVich3fg-162" value="TAHUN_ANGGARAN" style="shape=partialRectangle;connectable=0;fillColor=none;top=0;left=0;bottom=0;right=0;align=left;spacingLeft=6;overflow=hidden;whiteSpace=wrap;html=1;labelBackgroundColor=none;strokeColor=#D0CEE2;fontColor=#1A1A1A;" parent="F3-TGmnj43T6yVich3fg-160" vertex="1">
                    <mxGeometry x="30" width="150" height="30" as="geometry">
                        <mxRectangle width="150" height="30" as="alternateBounds"/>
                    </mxGeometry>
                </mxCell>
                <mxCell id="F3-TGmnj43T6yVich3fg-163" value="" style="shape=tableRow;horizontal=0;startSize=0;swimlaneHead=0;swimlaneBody=0;fillColor=none;collapsible=0;dropTarget=0;points=[[0,0.5],[1,0.5]];portConstraint=eastwest;top=0;left=0;right=0;bottom=0;labelBackgroundColor=none;strokeColor=#D0CEE2;fontColor=#1A1A1A;" parent="F3-TGmnj43T6yVich3fg-156" vertex="1">
                    <mxGeometry y="90" width="180" height="30" as="geometry"/>
                </mxCell>
                <mxCell id="F3-TGmnj43T6yVich3fg-164" value="" style="shape=partialRectangle;connectable=0;fillColor=none;top=0;left=0;bottom=0;right=0;editable=1;overflow=hidden;whiteSpace=wrap;html=1;labelBackgroundColor=none;strokeColor=#D0CEE2;fontColor=#1A1A1A;" parent="F3-TGmnj43T6yVich3fg-163" vertex="1">
                    <mxGeometry width="30" height="30" as="geometry">
                        <mxRectangle width="30" height="30" as="alternateBounds"/>
                    </mxGeometry>
                </mxCell>
                <mxCell id="F3-TGmnj43T6yVich3fg-165" value="KODE_SATKER" style="shape=partialRectangle;connectable=0;fillColor=none;top=0;left=0;bottom=0;right=0;align=left;spacingLeft=6;overflow=hidden;whiteSpace=wrap;html=1;labelBackgroundColor=none;strokeColor=#D0CEE2;fontColor=#1A1A1A;" parent="F3-TGmnj43T6yVich3fg-163" vertex="1">
                    <mxGeometry x="30" width="150" height="30" as="geometry">
                        <mxRectangle width="150" height="30" as="alternateBounds"/>
                    </mxGeometry>
                </mxCell>
                <mxCell id="F3-TGmnj43T6yVich3fg-166" value="" style="shape=tableRow;horizontal=0;startSize=0;swimlaneHead=0;swimlaneBody=0;fillColor=none;collapsible=0;dropTarget=0;points=[[0,0.5],[1,0.5]];portConstraint=eastwest;top=0;left=0;right=0;bottom=0;labelBackgroundColor=none;strokeColor=#D0CEE2;fontColor=#1A1A1A;" parent="F3-TGmnj43T6yVich3fg-156" vertex="1">
                    <mxGeometry y="120" width="180" height="30" as="geometry"/>
                </mxCell>
                <mxCell id="F3-TGmnj43T6yVich3fg-167" value="" style="shape=partialRectangle;connectable=0;fillColor=none;top=0;left=0;bottom=0;right=0;editable=1;overflow=hidden;whiteSpace=wrap;html=1;labelBackgroundColor=none;strokeColor=#D0CEE2;fontColor=#1A1A1A;" parent="F3-TGmnj43T6yVich3fg-166" vertex="1">
                    <mxGeometry width="30" height="30" as="geometry">
                        <mxRectangle width="30" height="30" as="alternateBounds"/>
                    </mxGeometry>
                </mxCell>
                <mxCell id="F3-TGmnj43T6yVich3fg-168" value="ID_PIUTANG" style="shape=partialRectangle;connectable=0;fillColor=none;top=0;left=0;bottom=0;right=0;align=left;spacingLeft=6;overflow=hidden;whiteSpace=wrap;html=1;labelBackgroundColor=none;strokeColor=#D0CEE2;fontColor=#1A1A1A;" parent="F3-TGmnj43T6yVich3fg-166" vertex="1">
                    <mxGeometry x="30" width="150" height="30" as="geometry">
                        <mxRectangle width="150" height="30" as="alternateBounds"/>
                    </mxGeometry>
                </mxCell>
                <mxCell id="F3-TGmnj43T6yVich3fg-169" value="" style="shape=tableRow;horizontal=0;startSize=0;swimlaneHead=0;swimlaneBody=0;fillColor=none;collapsible=0;dropTarget=0;points=[[0,0.5],[1,0.5]];portConstraint=eastwest;top=0;left=0;right=0;bottom=0;labelBackgroundColor=none;strokeColor=#D0CEE2;fontColor=#1A1A1A;" parent="F3-TGmnj43T6yVich3fg-156" vertex="1">
                    <mxGeometry y="150" width="180" height="30" as="geometry"/>
                </mxCell>
                <mxCell id="F3-TGmnj43T6yVich3fg-170" value="" style="shape=partialRectangle;connectable=0;fillColor=none;top=0;left=0;bottom=0;right=0;editable=1;overflow=hidden;whiteSpace=wrap;html=1;labelBackgroundColor=none;strokeColor=#D0CEE2;fontColor=#1A1A1A;" parent="F3-TGmnj43T6yVich3fg-169" vertex="1">
                    <mxGeometry width="30" height="30" as="geometry">
                        <mxRectangle width="30" height="30" as="alternateBounds"/>
                    </mxGeometry>
                </mxCell>
                <mxCell id="F3-TGmnj43T6yVich3fg-171" value="JENIS_KOREKSI" style="shape=partialRectangle;connectable=0;fillColor=none;top=0;left=0;bottom=0;right=0;align=left;spacingLeft=6;overflow=hidden;whiteSpace=wrap;html=1;labelBackgroundColor=none;strokeColor=#D0CEE2;fontColor=#1A1A1A;" parent="F3-TGmnj43T6yVich3fg-169" vertex="1">
                    <mxGeometry x="30" width="150" height="30" as="geometry">
                        <mxRectangle width="150" height="30" as="alternateBounds"/>
                    </mxGeometry>
                </mxCell>
                <mxCell id="F3-TGmnj43T6yVich3fg-172" value="" style="shape=tableRow;horizontal=0;startSize=0;swimlaneHead=0;swimlaneBody=0;fillColor=none;collapsible=0;dropTarget=0;points=[[0,0.5],[1,0.5]];portConstraint=eastwest;top=0;left=0;right=0;bottom=0;labelBackgroundColor=none;strokeColor=#D0CEE2;fontColor=#1A1A1A;" parent="F3-TGmnj43T6yVich3fg-156" vertex="1">
                    <mxGeometry y="180" width="180" height="30" as="geometry"/>
                </mxCell>
                <mxCell id="F3-TGmnj43T6yVich3fg-173" value="" style="shape=partialRectangle;connectable=0;fillColor=none;top=0;left=0;bottom=0;right=0;editable=1;overflow=hidden;whiteSpace=wrap;html=1;labelBackgroundColor=none;strokeColor=#D0CEE2;fontColor=#1A1A1A;" parent="F3-TGmnj43T6yVich3fg-172" vertex="1">
                    <mxGeometry width="30" height="30" as="geometry">
                        <mxRectangle width="30" height="30" as="alternateBounds"/>
                    </mxGeometry>
                </mxCell>
                <mxCell id="F3-TGmnj43T6yVich3fg-174" value="NO_DOKUMEN" style="shape=partialRectangle;connectable=0;fillColor=none;top=0;left=0;bottom=0;right=0;align=left;spacingLeft=6;overflow=hidden;whiteSpace=wrap;html=1;labelBackgroundColor=none;strokeColor=#D0CEE2;fontColor=#1A1A1A;" parent="F3-TGmnj43T6yVich3fg-172" vertex="1">
                    <mxGeometry x="30" width="150" height="30" as="geometry">
                        <mxRectangle width="150" height="30" as="alternateBounds"/>
                    </mxGeometry>
                </mxCell>
                <mxCell id="F3-TGmnj43T6yVich3fg-175" value="" style="shape=tableRow;horizontal=0;startSize=0;swimlaneHead=0;swimlaneBody=0;fillColor=none;collapsible=0;dropTarget=0;points=[[0,0.5],[1,0.5]];portConstraint=eastwest;top=0;left=0;right=0;bottom=0;labelBackgroundColor=none;strokeColor=#D0CEE2;fontColor=#1A1A1A;" parent="F3-TGmnj43T6yVich3fg-156" vertex="1">
                    <mxGeometry y="210" width="180" height="30" as="geometry"/>
                </mxCell>
                <mxCell id="F3-TGmnj43T6yVich3fg-176" value="" style="shape=partialRectangle;connectable=0;fillColor=none;top=0;left=0;bottom=0;right=0;editable=1;overflow=hidden;whiteSpace=wrap;html=1;labelBackgroundColor=none;strokeColor=#D0CEE2;fontColor=#1A1A1A;" parent="F3-TGmnj43T6yVich3fg-175" vertex="1">
                    <mxGeometry width="30" height="30" as="geometry">
                        <mxRectangle width="30" height="30" as="alternateBounds"/>
                    </mxGeometry>
                </mxCell>
                <mxCell id="F3-TGmnj43T6yVich3fg-177" value="NO_DOK_MANUAL" style="shape=partialRectangle;connectable=0;fillColor=none;top=0;left=0;bottom=0;right=0;align=left;spacingLeft=6;overflow=hidden;whiteSpace=wrap;html=1;labelBackgroundColor=none;strokeColor=#D0CEE2;fontColor=#1A1A1A;" parent="F3-TGmnj43T6yVich3fg-175" vertex="1">
                    <mxGeometry x="30" width="150" height="30" as="geometry">
                        <mxRectangle width="150" height="30" as="alternateBounds"/>
                    </mxGeometry>
                </mxCell>
                <mxCell id="F3-TGmnj43T6yVich3fg-178" value="" style="shape=tableRow;horizontal=0;startSize=0;swimlaneHead=0;swimlaneBody=0;fillColor=none;collapsible=0;dropTarget=0;points=[[0,0.5],[1,0.5]];portConstraint=eastwest;top=0;left=0;right=0;bottom=0;labelBackgroundColor=none;strokeColor=#D0CEE2;fontColor=#1A1A1A;" parent="F3-TGmnj43T6yVich3fg-156" vertex="1">
                    <mxGeometry y="240" width="180" height="30" as="geometry"/>
                </mxCell>
                <mxCell id="F3-TGmnj43T6yVich3fg-179" value="" style="shape=partialRectangle;connectable=0;fillColor=none;top=0;left=0;bottom=0;right=0;editable=1;overflow=hidden;whiteSpace=wrap;html=1;labelBackgroundColor=none;strokeColor=#D0CEE2;fontColor=#1A1A1A;" parent="F3-TGmnj43T6yVich3fg-178" vertex="1">
                    <mxGeometry width="30" height="30" as="geometry">
                        <mxRectangle width="30" height="30" as="alternateBounds"/>
                    </mxGeometry>
                </mxCell>
                <mxCell id="F3-TGmnj43T6yVich3fg-180" value="TANGGAL" style="shape=partialRectangle;connectable=0;fillColor=none;top=0;left=0;bottom=0;right=0;align=left;spacingLeft=6;overflow=hidden;whiteSpace=wrap;html=1;labelBackgroundColor=none;strokeColor=#D0CEE2;fontColor=#1A1A1A;" parent="F3-TGmnj43T6yVich3fg-178" vertex="1">
                    <mxGeometry x="30" width="150" height="30" as="geometry">
                        <mxRectangle width="150" height="30" as="alternateBounds"/>
                    </mxGeometry>
                </mxCell>
                <mxCell id="F3-TGmnj43T6yVich3fg-181" value="" style="shape=tableRow;horizontal=0;startSize=0;swimlaneHead=0;swimlaneBody=0;fillColor=none;collapsible=0;dropTarget=0;points=[[0,0.5],[1,0.5]];portConstraint=eastwest;top=0;left=0;right=0;bottom=0;labelBackgroundColor=none;strokeColor=#D0CEE2;fontColor=#1A1A1A;" parent="F3-TGmnj43T6yVich3fg-156" vertex="1">
                    <mxGeometry y="270" width="180" height="30" as="geometry"/>
                </mxCell>
                <mxCell id="F3-TGmnj43T6yVich3fg-182" value="" style="shape=partialRectangle;connectable=0;fillColor=none;top=0;left=0;bottom=0;right=0;editable=1;overflow=hidden;whiteSpace=wrap;html=1;labelBackgroundColor=none;strokeColor=#D0CEE2;fontColor=#1A1A1A;" parent="F3-TGmnj43T6yVich3fg-181" vertex="1">
                    <mxGeometry width="30" height="30" as="geometry">
                        <mxRectangle width="30" height="30" as="alternateBounds"/>
                    </mxGeometry>
                </mxCell>
                <mxCell id="F3-TGmnj43T6yVich3fg-183" value="KODE_PERIODE" style="shape=partialRectangle;connectable=0;fillColor=none;top=0;left=0;bottom=0;right=0;align=left;spacingLeft=6;overflow=hidden;whiteSpace=wrap;html=1;labelBackgroundColor=none;strokeColor=#D0CEE2;fontColor=#1A1A1A;" parent="F3-TGmnj43T6yVich3fg-181" vertex="1">
                    <mxGeometry x="30" width="150" height="30" as="geometry">
                        <mxRectangle width="150" height="30" as="alternateBounds"/>
                    </mxGeometry>
                </mxCell>
                <mxCell id="F3-TGmnj43T6yVich3fg-184" value="" style="shape=tableRow;horizontal=0;startSize=0;swimlaneHead=0;swimlaneBody=0;fillColor=none;collapsible=0;dropTarget=0;points=[[0,0.5],[1,0.5]];portConstraint=eastwest;top=0;left=0;right=0;bottom=0;labelBackgroundColor=none;strokeColor=#D0CEE2;fontColor=#1A1A1A;" parent="F3-TGmnj43T6yVich3fg-156" vertex="1">
                    <mxGeometry y="300" width="180" height="30" as="geometry"/>
                </mxCell>
                <mxCell id="F3-TGmnj43T6yVich3fg-185" value="" style="shape=partialRectangle;connectable=0;fillColor=none;top=0;left=0;bottom=0;right=0;editable=1;overflow=hidden;whiteSpace=wrap;html=1;labelBackgroundColor=none;strokeColor=#D0CEE2;fontColor=#1A1A1A;" parent="F3-TGmnj43T6yVich3fg-184" vertex="1">
                    <mxGeometry width="30" height="30" as="geometry">
                        <mxRectangle width="30" height="30" as="alternateBounds"/>
                    </mxGeometry>
                </mxCell>
                <mxCell id="F3-TGmnj43T6yVich3fg-186" value="KETERANGAN" style="shape=partialRectangle;connectable=0;fillColor=none;top=0;left=0;bottom=0;right=0;align=left;spacingLeft=6;overflow=hidden;whiteSpace=wrap;html=1;labelBackgroundColor=none;strokeColor=#D0CEE2;fontColor=#1A1A1A;" parent="F3-TGmnj43T6yVich3fg-184" vertex="1">
                    <mxGeometry x="30" width="150" height="30" as="geometry">
                        <mxRectangle width="150" height="30" as="alternateBounds"/>
                    </mxGeometry>
                </mxCell>
                <mxCell id="F3-TGmnj43T6yVich3fg-187" value="" style="shape=tableRow;horizontal=0;startSize=0;swimlaneHead=0;swimlaneBody=0;fillColor=none;collapsible=0;dropTarget=0;points=[[0,0.5],[1,0.5]];portConstraint=eastwest;top=0;left=0;right=0;bottom=0;labelBackgroundColor=none;strokeColor=#D0CEE2;fontColor=#1A1A1A;" parent="F3-TGmnj43T6yVich3fg-156" vertex="1">
                    <mxGeometry y="330" width="180" height="30" as="geometry"/>
                </mxCell>
                <mxCell id="F3-TGmnj43T6yVich3fg-188" value="" style="shape=partialRectangle;connectable=0;fillColor=none;top=0;left=0;bottom=0;right=0;editable=1;overflow=hidden;whiteSpace=wrap;html=1;labelBackgroundColor=none;strokeColor=#D0CEE2;fontColor=#1A1A1A;" parent="F3-TGmnj43T6yVich3fg-187" vertex="1">
                    <mxGeometry width="30" height="30" as="geometry">
                        <mxRectangle width="30" height="30" as="alternateBounds"/>
                    </mxGeometry>
                </mxCell>
                <mxCell id="F3-TGmnj43T6yVich3fg-189" value="NILAI_DELTA" style="shape=partialRectangle;connectable=0;fillColor=none;top=0;left=0;bottom=0;right=0;align=left;spacingLeft=6;overflow=hidden;whiteSpace=wrap;html=1;labelBackgroundColor=none;strokeColor=#D0CEE2;fontColor=#1A1A1A;" parent="F3-TGmnj43T6yVich3fg-187" vertex="1">
                    <mxGeometry x="30" width="150" height="30" as="geometry">
                        <mxRectangle width="150" height="30" as="alternateBounds"/>
                    </mxGeometry>
                </mxCell>
                <mxCell id="F3-TGmnj43T6yVich3fg-190" value="" style="shape=tableRow;horizontal=0;startSize=0;swimlaneHead=0;swimlaneBody=0;fillColor=none;collapsible=0;dropTarget=0;points=[[0,0.5],[1,0.5]];portConstraint=eastwest;top=0;left=0;right=0;bottom=0;labelBackgroundColor=none;strokeColor=#D0CEE2;fontColor=#1A1A1A;" parent="F3-TGmnj43T6yVich3fg-156" vertex="1">
                    <mxGeometry y="360" width="180" height="30" as="geometry"/>
                </mxCell>
                <mxCell id="F3-TGmnj43T6yVich3fg-191" value="" style="shape=partialRectangle;connectable=0;fillColor=none;top=0;left=0;bottom=0;right=0;editable=1;overflow=hidden;whiteSpace=wrap;html=1;labelBackgroundColor=none;strokeColor=#D0CEE2;fontColor=#1A1A1A;" parent="F3-TGmnj43T6yVich3fg-190" vertex="1">
                    <mxGeometry width="30" height="30" as="geometry">
                        <mxRectangle width="30" height="30" as="alternateBounds"/>
                    </mxGeometry>
                </mxCell>
                <mxCell id="F3-TGmnj43T6yVich3fg-192" value="NILAI_DELTA_PENYISIHAN" style="shape=partialRectangle;connectable=0;fillColor=none;top=0;left=0;bottom=0;right=0;align=left;spacingLeft=6;overflow=hidden;whiteSpace=wrap;html=1;labelBackgroundColor=none;strokeColor=#D0CEE2;fontColor=#1A1A1A;" parent="F3-TGmnj43T6yVich3fg-190" vertex="1">
                    <mxGeometry x="30" width="150" height="30" as="geometry">
                        <mxRectangle width="150" height="30" as="alternateBounds"/>
                    </mxGeometry>
                </mxCell>
                <mxCell id="F3-TGmnj43T6yVich3fg-193" value="" style="shape=tableRow;horizontal=0;startSize=0;swimlaneHead=0;swimlaneBody=0;fillColor=none;collapsible=0;dropTarget=0;points=[[0,0.5],[1,0.5]];portConstraint=eastwest;top=0;left=0;right=0;bottom=0;labelBackgroundColor=none;strokeColor=#D0CEE2;fontColor=#1A1A1A;" parent="F3-TGmnj43T6yVich3fg-156" vertex="1">
                    <mxGeometry y="390" width="180" height="30" as="geometry"/>
                </mxCell>
                <mxCell id="F3-TGmnj43T6yVich3fg-194" value="" style="shape=partialRectangle;connectable=0;fillColor=none;top=0;left=0;bottom=0;right=0;editable=1;overflow=hidden;whiteSpace=wrap;html=1;labelBackgroundColor=none;strokeColor=#D0CEE2;fontColor=#1A1A1A;" parent="F3-TGmnj43T6yVich3fg-193" vertex="1">
                    <mxGeometry width="30" height="30" as="geometry">
                        <mxRectangle width="30" height="30" as="alternateBounds"/>
                    </mxGeometry>
                </mxCell>
                <mxCell id="F3-TGmnj43T6yVich3fg-195" value="STATUS_PIUTANG_AWAL" style="shape=partialRectangle;connectable=0;fillColor=none;top=0;left=0;bottom=0;right=0;align=left;spacingLeft=6;overflow=hidden;whiteSpace=wrap;html=1;labelBackgroundColor=none;strokeColor=#D0CEE2;fontColor=#1A1A1A;" parent="F3-TGmnj43T6yVich3fg-193" vertex="1">
                    <mxGeometry x="30" width="150" height="30" as="geometry">
                        <mxRectangle width="150" height="30" as="alternateBounds"/>
                    </mxGeometry>
                </mxCell>
                <mxCell id="F3-TGmnj43T6yVich3fg-196" value="" style="shape=tableRow;horizontal=0;startSize=0;swimlaneHead=0;swimlaneBody=0;fillColor=none;collapsible=0;dropTarget=0;points=[[0,0.5],[1,0.5]];portConstraint=eastwest;top=0;left=0;right=0;bottom=0;labelBackgroundColor=none;strokeColor=#D0CEE2;fontColor=#1A1A1A;" parent="F3-TGmnj43T6yVich3fg-156" vertex="1">
                    <mxGeometry y="420" width="180" height="30" as="geometry"/>
                </mxCell>
                <mxCell id="F3-TGmnj43T6yVich3fg-197" value="" style="shape=partialRectangle;connectable=0;fillColor=none;top=0;left=0;bottom=0;right=0;editable=1;overflow=hidden;whiteSpace=wrap;html=1;labelBackgroundColor=none;strokeColor=#D0CEE2;fontColor=#1A1A1A;" parent="F3-TGmnj43T6yVich3fg-196" vertex="1">
                    <mxGeometry width="30" height="30" as="geometry">
                        <mxRectangle width="30" height="30" as="alternateBounds"/>
                    </mxGeometry>
                </mxCell>
                <mxCell id="F3-TGmnj43T6yVich3fg-198" value="STATUS_PIUTANG" style="shape=partialRectangle;connectable=0;fillColor=none;top=0;left=0;bottom=0;right=0;align=left;spacingLeft=6;overflow=hidden;whiteSpace=wrap;html=1;labelBackgroundColor=none;strokeColor=#D0CEE2;fontColor=#1A1A1A;" parent="F3-TGmnj43T6yVich3fg-196" vertex="1">
                    <mxGeometry x="30" width="150" height="30" as="geometry">
                        <mxRectangle width="150" height="30" as="alternateBounds"/>
                    </mxGeometry>
                </mxCell>
                <mxCell id="F3-TGmnj43T6yVich3fg-199" value="" style="shape=tableRow;horizontal=0;startSize=0;swimlaneHead=0;swimlaneBody=0;fillColor=none;collapsible=0;dropTarget=0;points=[[0,0.5],[1,0.5]];portConstraint=eastwest;top=0;left=0;right=0;bottom=0;labelBackgroundColor=none;strokeColor=#D0CEE2;fontColor=#1A1A1A;" parent="F3-TGmnj43T6yVich3fg-156" vertex="1">
                    <mxGeometry y="450" width="180" height="30" as="geometry"/>
                </mxCell>
                <mxCell id="F3-TGmnj43T6yVich3fg-200" value="" style="shape=partialRectangle;connectable=0;fillColor=none;top=0;left=0;bottom=0;right=0;editable=1;overflow=hidden;whiteSpace=wrap;html=1;labelBackgroundColor=none;strokeColor=#D0CEE2;fontColor=#1A1A1A;" parent="F3-TGmnj43T6yVich3fg-199" vertex="1">
                    <mxGeometry width="30" height="30" as="geometry">
                        <mxRectangle width="30" height="30" as="alternateBounds"/>
                    </mxGeometry>
                </mxCell>
                <mxCell id="F3-TGmnj43T6yVich3fg-201" value="NO_REF_GL" style="shape=partialRectangle;connectable=0;fillColor=none;top=0;left=0;bottom=0;right=0;align=left;spacingLeft=6;overflow=hidden;whiteSpace=wrap;html=1;labelBackgroundColor=none;strokeColor=#D0CEE2;fontColor=#1A1A1A;" parent="F3-TGmnj43T6yVich3fg-199" vertex="1">
                    <mxGeometry x="30" width="150" height="30" as="geometry">
                        <mxRectangle width="150" height="30" as="alternateBounds"/>
                    </mxGeometry>
                </mxCell>
                <mxCell id="F3-TGmnj43T6yVich3fg-202" value="" style="shape=tableRow;horizontal=0;startSize=0;swimlaneHead=0;swimlaneBody=0;fillColor=none;collapsible=0;dropTarget=0;points=[[0,0.5],[1,0.5]];portConstraint=eastwest;top=0;left=0;right=0;bottom=0;labelBackgroundColor=none;strokeColor=#D0CEE2;fontColor=#1A1A1A;" parent="F3-TGmnj43T6yVich3fg-156" vertex="1">
                    <mxGeometry y="480" width="180" height="30" as="geometry"/>
                </mxCell>
                <mxCell id="F3-TGmnj43T6yVich3fg-203" value="" style="shape=partialRectangle;connectable=0;fillColor=none;top=0;left=0;bottom=0;right=0;editable=1;overflow=hidden;whiteSpace=wrap;html=1;labelBackgroundColor=none;strokeColor=#D0CEE2;fontColor=#1A1A1A;" parent="F3-TGmnj43T6yVich3fg-202" vertex="1">
                    <mxGeometry width="30" height="30" as="geometry">
                        <mxRectangle width="30" height="30" as="alternateBounds"/>
                    </mxGeometry>
                </mxCell>
                <mxCell id="F3-TGmnj43T6yVich3fg-204" value="NO_REF_GL_PENYISIHAN" style="shape=partialRectangle;connectable=0;fillColor=none;top=0;left=0;bottom=0;right=0;align=left;spacingLeft=6;overflow=hidden;whiteSpace=wrap;html=1;labelBackgroundColor=none;strokeColor=#D0CEE2;fontColor=#1A1A1A;" parent="F3-TGmnj43T6yVich3fg-202" vertex="1">
                    <mxGeometry x="30" width="150" height="30" as="geometry">
                        <mxRectangle width="150" height="30" as="alternateBounds"/>
                    </mxGeometry>
                </mxCell>
                <mxCell id="F3-TGmnj43T6yVich3fg-205" value="ARE_T_SP_PIUTANG" style="shape=table;startSize=50;container=1;collapsible=1;childLayout=tableLayout;fixedRows=1;rowLines=0;fontStyle=1;align=center;resizeLast=1;html=1;labelBackgroundColor=none;fillColor=#5D7F99;strokeColor=#D0CEE2;fontColor=#1A1A1A;" parent="1" vertex="1">
                    <mxGeometry x="840" y="70" width="180" height="320" as="geometry">
                        <mxRectangle x="70" y="550" width="200" height="30" as="alternateBounds"/>
                    </mxGeometry>
                </mxCell>
                <mxCell id="F3-TGmnj43T6yVich3fg-206" value="" style="shape=tableRow;horizontal=0;startSize=0;swimlaneHead=0;swimlaneBody=0;fillColor=none;collapsible=0;dropTarget=0;points=[[0,0.5],[1,0.5]];portConstraint=eastwest;top=0;left=0;right=0;bottom=1;labelBackgroundColor=none;strokeColor=#D0CEE2;fontColor=#1A1A1A;" parent="F3-TGmnj43T6yVich3fg-205" vertex="1">
                    <mxGeometry y="50" width="180" height="30" as="geometry"/>
                </mxCell>
                <mxCell id="F3-TGmnj43T6yVich3fg-207" value="PK" style="shape=partialRectangle;connectable=0;fillColor=none;top=0;left=0;bottom=0;right=0;fontStyle=1;overflow=hidden;whiteSpace=wrap;html=1;labelBackgroundColor=none;strokeColor=#D0CEE2;fontColor=#1A1A1A;" parent="F3-TGmnj43T6yVich3fg-206" vertex="1">
                    <mxGeometry width="30" height="30" as="geometry">
                        <mxRectangle width="30" height="30" as="alternateBounds"/>
                    </mxGeometry>
                </mxCell>
                <mxCell id="F3-TGmnj43T6yVich3fg-208" value="ID" style="shape=partialRectangle;connectable=0;fillColor=none;top=0;left=0;bottom=0;right=0;align=left;spacingLeft=6;fontStyle=5;overflow=hidden;whiteSpace=wrap;html=1;labelBackgroundColor=none;strokeColor=#D0CEE2;fontColor=#1A1A1A;" parent="F3-TGmnj43T6yVich3fg-206" vertex="1">
                    <mxGeometry x="30" width="150" height="30" as="geometry">
                        <mxRectangle width="150" height="30" as="alternateBounds"/>
                    </mxGeometry>
                </mxCell>
                <mxCell id="F3-TGmnj43T6yVich3fg-209" value="" style="shape=tableRow;horizontal=0;startSize=0;swimlaneHead=0;swimlaneBody=0;fillColor=none;collapsible=0;dropTarget=0;points=[[0,0.5],[1,0.5]];portConstraint=eastwest;top=0;left=0;right=0;bottom=0;labelBackgroundColor=none;strokeColor=#D0CEE2;fontColor=#1A1A1A;" parent="F3-TGmnj43T6yVich3fg-205" vertex="1">
                    <mxGeometry y="80" width="180" height="30" as="geometry"/>
                </mxCell>
                <mxCell id="F3-TGmnj43T6yVich3fg-210" value="" style="shape=partialRectangle;connectable=0;fillColor=none;top=0;left=0;bottom=0;right=0;editable=1;overflow=hidden;whiteSpace=wrap;html=1;labelBackgroundColor=none;strokeColor=#D0CEE2;fontColor=#1A1A1A;" parent="F3-TGmnj43T6yVich3fg-209" vertex="1">
                    <mxGeometry width="30" height="30" as="geometry">
                        <mxRectangle width="30" height="30" as="alternateBounds"/>
                    </mxGeometry>
                </mxCell>
                <mxCell id="F3-TGmnj43T6yVich3fg-211" value="KODE_SATKER" style="shape=partialRectangle;connectable=0;fillColor=none;top=0;left=0;bottom=0;right=0;align=left;spacingLeft=6;overflow=hidden;whiteSpace=wrap;html=1;labelBackgroundColor=none;strokeColor=#D0CEE2;fontColor=#1A1A1A;" parent="F3-TGmnj43T6yVich3fg-209" vertex="1">
                    <mxGeometry x="30" width="150" height="30" as="geometry">
                        <mxRectangle width="150" height="30" as="alternateBounds"/>
                    </mxGeometry>
                </mxCell>
                <mxCell id="F3-TGmnj43T6yVich3fg-212" value="" style="shape=tableRow;horizontal=0;startSize=0;swimlaneHead=0;swimlaneBody=0;fillColor=none;collapsible=0;dropTarget=0;points=[[0,0.5],[1,0.5]];portConstraint=eastwest;top=0;left=0;right=0;bottom=0;labelBackgroundColor=none;strokeColor=#D0CEE2;fontColor=#1A1A1A;" parent="F3-TGmnj43T6yVich3fg-205" vertex="1">
                    <mxGeometry y="110" width="180" height="30" as="geometry"/>
                </mxCell>
                <mxCell id="F3-TGmnj43T6yVich3fg-213" value="" style="shape=partialRectangle;connectable=0;fillColor=none;top=0;left=0;bottom=0;right=0;editable=1;overflow=hidden;whiteSpace=wrap;html=1;labelBackgroundColor=none;strokeColor=#D0CEE2;fontColor=#1A1A1A;" parent="F3-TGmnj43T6yVich3fg-212" vertex="1">
                    <mxGeometry width="30" height="30" as="geometry">
                        <mxRectangle width="30" height="30" as="alternateBounds"/>
                    </mxGeometry>
                </mxCell>
                <mxCell id="F3-TGmnj43T6yVich3fg-214" value="ID_PIUTANG" style="shape=partialRectangle;connectable=0;fillColor=none;top=0;left=0;bottom=0;right=0;align=left;spacingLeft=6;overflow=hidden;whiteSpace=wrap;html=1;labelBackgroundColor=none;strokeColor=#D0CEE2;fontColor=#1A1A1A;" parent="F3-TGmnj43T6yVich3fg-212" vertex="1">
                    <mxGeometry x="30" width="150" height="30" as="geometry">
                        <mxRectangle width="150" height="30" as="alternateBounds"/>
                    </mxGeometry>
                </mxCell>
                <mxCell id="F3-TGmnj43T6yVich3fg-215" value="" style="shape=tableRow;horizontal=0;startSize=0;swimlaneHead=0;swimlaneBody=0;fillColor=none;collapsible=0;dropTarget=0;points=[[0,0.5],[1,0.5]];portConstraint=eastwest;top=0;left=0;right=0;bottom=0;labelBackgroundColor=none;strokeColor=#D0CEE2;fontColor=#1A1A1A;" parent="F3-TGmnj43T6yVich3fg-205" vertex="1">
                    <mxGeometry y="140" width="180" height="30" as="geometry"/>
                </mxCell>
                <mxCell id="F3-TGmnj43T6yVich3fg-216" value="" style="shape=partialRectangle;connectable=0;fillColor=none;top=0;left=0;bottom=0;right=0;editable=1;overflow=hidden;whiteSpace=wrap;html=1;labelBackgroundColor=none;strokeColor=#D0CEE2;fontColor=#1A1A1A;" parent="F3-TGmnj43T6yVich3fg-215" vertex="1">
                    <mxGeometry width="30" height="30" as="geometry">
                        <mxRectangle width="30" height="30" as="alternateBounds"/>
                    </mxGeometry>
                </mxCell>
                <mxCell id="F3-TGmnj43T6yVich3fg-217" value="NO_SP" style="shape=partialRectangle;connectable=0;fillColor=none;top=0;left=0;bottom=0;right=0;align=left;spacingLeft=6;overflow=hidden;whiteSpace=wrap;html=1;labelBackgroundColor=none;strokeColor=#D0CEE2;fontColor=#1A1A1A;" parent="F3-TGmnj43T6yVich3fg-215" vertex="1">
                    <mxGeometry x="30" width="150" height="30" as="geometry">
                        <mxRectangle width="150" height="30" as="alternateBounds"/>
                    </mxGeometry>
                </mxCell>
                <mxCell id="F3-TGmnj43T6yVich3fg-218" value="" style="shape=tableRow;horizontal=0;startSize=0;swimlaneHead=0;swimlaneBody=0;fillColor=none;collapsible=0;dropTarget=0;points=[[0,0.5],[1,0.5]];portConstraint=eastwest;top=0;left=0;right=0;bottom=0;labelBackgroundColor=none;strokeColor=#D0CEE2;fontColor=#1A1A1A;" parent="F3-TGmnj43T6yVich3fg-205" vertex="1">
                    <mxGeometry y="170" width="180" height="30" as="geometry"/>
                </mxCell>
                <mxCell id="F3-TGmnj43T6yVich3fg-219" value="" style="shape=partialRectangle;connectable=0;fillColor=none;top=0;left=0;bottom=0;right=0;editable=1;overflow=hidden;whiteSpace=wrap;html=1;labelBackgroundColor=none;strokeColor=#D0CEE2;fontColor=#1A1A1A;" parent="F3-TGmnj43T6yVich3fg-218" vertex="1">
                    <mxGeometry width="30" height="30" as="geometry">
                        <mxRectangle width="30" height="30" as="alternateBounds"/>
                    </mxGeometry>
                </mxCell>
                <mxCell id="F3-TGmnj43T6yVich3fg-220" value="NO_DOKUMEN" style="shape=partialRectangle;connectable=0;fillColor=none;top=0;left=0;bottom=0;right=0;align=left;spacingLeft=6;overflow=hidden;whiteSpace=wrap;html=1;labelBackgroundColor=none;strokeColor=#D0CEE2;fontColor=#1A1A1A;" parent="F3-TGmnj43T6yVich3fg-218" vertex="1">
                    <mxGeometry x="30" width="150" height="30" as="geometry">
                        <mxRectangle width="150" height="30" as="alternateBounds"/>
                    </mxGeometry>
                </mxCell>
                <mxCell id="F3-TGmnj43T6yVich3fg-221" value="" style="shape=tableRow;horizontal=0;startSize=0;swimlaneHead=0;swimlaneBody=0;fillColor=none;collapsible=0;dropTarget=0;points=[[0,0.5],[1,0.5]];portConstraint=eastwest;top=0;left=0;right=0;bottom=0;labelBackgroundColor=none;strokeColor=#D0CEE2;fontColor=#1A1A1A;" parent="F3-TGmnj43T6yVich3fg-205" vertex="1">
                    <mxGeometry y="200" width="180" height="30" as="geometry"/>
                </mxCell>
                <mxCell id="F3-TGmnj43T6yVich3fg-222" value="" style="shape=partialRectangle;connectable=0;fillColor=none;top=0;left=0;bottom=0;right=0;editable=1;overflow=hidden;whiteSpace=wrap;html=1;labelBackgroundColor=none;strokeColor=#D0CEE2;fontColor=#1A1A1A;" parent="F3-TGmnj43T6yVich3fg-221" vertex="1">
                    <mxGeometry width="30" height="30" as="geometry">
                        <mxRectangle width="30" height="30" as="alternateBounds"/>
                    </mxGeometry>
                </mxCell>
                <mxCell id="F3-TGmnj43T6yVich3fg-223" value="TANGGAL_SP" style="shape=partialRectangle;connectable=0;fillColor=none;top=0;left=0;bottom=0;right=0;align=left;spacingLeft=6;overflow=hidden;whiteSpace=wrap;html=1;labelBackgroundColor=none;strokeColor=#D0CEE2;fontColor=#1A1A1A;" parent="F3-TGmnj43T6yVich3fg-221" vertex="1">
                    <mxGeometry x="30" width="150" height="30" as="geometry">
                        <mxRectangle width="150" height="30" as="alternateBounds"/>
                    </mxGeometry>
                </mxCell>
                <mxCell id="F3-TGmnj43T6yVich3fg-224" value="" style="shape=tableRow;horizontal=0;startSize=0;swimlaneHead=0;swimlaneBody=0;fillColor=none;collapsible=0;dropTarget=0;points=[[0,0.5],[1,0.5]];portConstraint=eastwest;top=0;left=0;right=0;bottom=0;labelBackgroundColor=none;strokeColor=#D0CEE2;fontColor=#1A1A1A;" parent="F3-TGmnj43T6yVich3fg-205" vertex="1">
                    <mxGeometry y="230" width="180" height="30" as="geometry"/>
                </mxCell>
                <mxCell id="F3-TGmnj43T6yVich3fg-225" value="" style="shape=partialRectangle;connectable=0;fillColor=none;top=0;left=0;bottom=0;right=0;editable=1;overflow=hidden;whiteSpace=wrap;html=1;labelBackgroundColor=none;strokeColor=#D0CEE2;fontColor=#1A1A1A;" parent="F3-TGmnj43T6yVich3fg-224" vertex="1">
                    <mxGeometry width="30" height="30" as="geometry">
                        <mxRectangle width="30" height="30" as="alternateBounds"/>
                    </mxGeometry>
                </mxCell>
                <mxCell id="F3-TGmnj43T6yVich3fg-226" value="KODE_PERIODE" style="shape=partialRectangle;connectable=0;fillColor=none;top=0;left=0;bottom=0;right=0;align=left;spacingLeft=6;overflow=hidden;whiteSpace=wrap;html=1;labelBackgroundColor=none;strokeColor=#D0CEE2;fontColor=#1A1A1A;" parent="F3-TGmnj43T6yVich3fg-224" vertex="1">
                    <mxGeometry x="30" width="150" height="30" as="geometry">
                        <mxRectangle width="150" height="30" as="alternateBounds"/>
                    </mxGeometry>
                </mxCell>
                <mxCell id="F3-TGmnj43T6yVich3fg-323" value="" style="shape=tableRow;horizontal=0;startSize=0;swimlaneHead=0;swimlaneBody=0;fillColor=none;collapsible=0;dropTarget=0;points=[[0,0.5],[1,0.5]];portConstraint=eastwest;top=0;left=0;right=0;bottom=0;labelBackgroundColor=none;strokeColor=#D0CEE2;fontColor=#1A1A1A;" parent="F3-TGmnj43T6yVich3fg-205" vertex="1">
                    <mxGeometry y="260" width="180" height="30" as="geometry"/>
                </mxCell>
                <mxCell id="F3-TGmnj43T6yVich3fg-324" value="" style="shape=partialRectangle;connectable=0;fillColor=none;top=0;left=0;bottom=0;right=0;editable=1;overflow=hidden;whiteSpace=wrap;html=1;labelBackgroundColor=none;strokeColor=#D0CEE2;fontColor=#1A1A1A;" parent="F3-TGmnj43T6yVich3fg-323" vertex="1">
                    <mxGeometry width="30" height="30" as="geometry">
                        <mxRectangle width="30" height="30" as="alternateBounds"/>
                    </mxGeometry>
                </mxCell>
                <mxCell id="F3-TGmnj43T6yVich3fg-325" value="SP_KE" style="shape=partialRectangle;connectable=0;fillColor=none;top=0;left=0;bottom=0;right=0;align=left;spacingLeft=6;overflow=hidden;whiteSpace=wrap;html=1;labelBackgroundColor=none;strokeColor=#D0CEE2;fontColor=#1A1A1A;" parent="F3-TGmnj43T6yVich3fg-323" vertex="1">
                    <mxGeometry x="30" width="150" height="30" as="geometry">
                        <mxRectangle width="150" height="30" as="alternateBounds"/>
                    </mxGeometry>
                </mxCell>
                <mxCell id="F3-TGmnj43T6yVich3fg-388" value="" style="shape=tableRow;horizontal=0;startSize=0;swimlaneHead=0;swimlaneBody=0;fillColor=none;collapsible=0;dropTarget=0;points=[[0,0.5],[1,0.5]];portConstraint=eastwest;top=0;left=0;right=0;bottom=0;labelBackgroundColor=none;strokeColor=#D0CEE2;fontColor=#1A1A1A;" parent="F3-TGmnj43T6yVich3fg-205" vertex="1">
                    <mxGeometry y="290" width="180" height="30" as="geometry"/>
                </mxCell>
                <mxCell id="F3-TGmnj43T6yVich3fg-389" value="" style="shape=partialRectangle;connectable=0;fillColor=none;top=0;left=0;bottom=0;right=0;editable=1;overflow=hidden;whiteSpace=wrap;html=1;labelBackgroundColor=none;strokeColor=#D0CEE2;fontColor=#1A1A1A;" parent="F3-TGmnj43T6yVich3fg-388" vertex="1">
                    <mxGeometry width="30" height="30" as="geometry">
                        <mxRectangle width="30" height="30" as="alternateBounds"/>
                    </mxGeometry>
                </mxCell>
                <mxCell id="F3-TGmnj43T6yVich3fg-390" value="KETERANGAN_SP" style="shape=partialRectangle;connectable=0;fillColor=none;top=0;left=0;bottom=0;right=0;align=left;spacingLeft=6;overflow=hidden;whiteSpace=wrap;html=1;labelBackgroundColor=none;strokeColor=#D0CEE2;fontColor=#1A1A1A;" parent="F3-TGmnj43T6yVich3fg-388" vertex="1">
                    <mxGeometry x="30" width="150" height="30" as="geometry">
                        <mxRectangle width="150" height="30" as="alternateBounds"/>
                    </mxGeometry>
                </mxCell>
                <mxCell id="F3-TGmnj43T6yVich3fg-289" value="ARE_T_SETTLEMENT_PIUTANG" style="shape=table;startSize=30;container=1;collapsible=1;childLayout=tableLayout;fixedRows=1;rowLines=0;fontStyle=1;align=center;resizeLast=1;html=1;labelBackgroundColor=none;fillColor=#5D7F99;strokeColor=#D0CEE2;fontColor=#1A1A1A;" parent="1" vertex="1">
                    <mxGeometry x="60" y="950" width="180" height="360" as="geometry">
                        <mxRectangle x="80" y="400" width="200" height="30" as="alternateBounds"/>
                    </mxGeometry>
                </mxCell>
                <mxCell id="F3-TGmnj43T6yVich3fg-290" value="" style="shape=tableRow;horizontal=0;startSize=0;swimlaneHead=0;swimlaneBody=0;fillColor=none;collapsible=0;dropTarget=0;points=[[0,0.5],[1,0.5]];portConstraint=eastwest;top=0;left=0;right=0;bottom=1;labelBackgroundColor=none;strokeColor=#D0CEE2;fontColor=#1A1A1A;" parent="F3-TGmnj43T6yVich3fg-289" vertex="1">
                    <mxGeometry y="30" width="180" height="30" as="geometry"/>
                </mxCell>
                <mxCell id="F3-TGmnj43T6yVich3fg-291" value="PK" style="shape=partialRectangle;connectable=0;fillColor=none;top=0;left=0;bottom=0;right=0;fontStyle=1;overflow=hidden;whiteSpace=wrap;html=1;labelBackgroundColor=none;strokeColor=#D0CEE2;fontColor=#1A1A1A;" parent="F3-TGmnj43T6yVich3fg-290" vertex="1">
                    <mxGeometry width="30" height="30" as="geometry">
                        <mxRectangle width="30" height="30" as="alternateBounds"/>
                    </mxGeometry>
                </mxCell>
                <mxCell id="F3-TGmnj43T6yVich3fg-292" value="ID" style="shape=partialRectangle;connectable=0;fillColor=none;top=0;left=0;bottom=0;right=0;align=left;spacingLeft=6;fontStyle=5;overflow=hidden;whiteSpace=wrap;html=1;labelBackgroundColor=none;strokeColor=#D0CEE2;fontColor=#1A1A1A;" parent="F3-TGmnj43T6yVich3fg-290" vertex="1">
                    <mxGeometry x="30" width="150" height="30" as="geometry">
                        <mxRectangle width="150" height="30" as="alternateBounds"/>
                    </mxGeometry>
                </mxCell>
                <mxCell id="F3-TGmnj43T6yVich3fg-293" value="" style="shape=tableRow;horizontal=0;startSize=0;swimlaneHead=0;swimlaneBody=0;fillColor=none;collapsible=0;dropTarget=0;points=[[0,0.5],[1,0.5]];portConstraint=eastwest;top=0;left=0;right=0;bottom=0;labelBackgroundColor=none;strokeColor=#D0CEE2;fontColor=#1A1A1A;" parent="F3-TGmnj43T6yVich3fg-289" vertex="1">
                    <mxGeometry y="60" width="180" height="30" as="geometry"/>
                </mxCell>
                <mxCell id="F3-TGmnj43T6yVich3fg-294" value="" style="shape=partialRectangle;connectable=0;fillColor=none;top=0;left=0;bottom=0;right=0;editable=1;overflow=hidden;whiteSpace=wrap;html=1;labelBackgroundColor=none;strokeColor=#D0CEE2;fontColor=#1A1A1A;" parent="F3-TGmnj43T6yVich3fg-293" vertex="1">
                    <mxGeometry width="30" height="30" as="geometry">
                        <mxRectangle width="30" height="30" as="alternateBounds"/>
                    </mxGeometry>
                </mxCell>
                <mxCell id="F3-TGmnj43T6yVich3fg-295" value="TAHUN_ANGGARAN" style="shape=partialRectangle;connectable=0;fillColor=none;top=0;left=0;bottom=0;right=0;align=left;spacingLeft=6;overflow=hidden;whiteSpace=wrap;html=1;labelBackgroundColor=none;strokeColor=#D0CEE2;fontColor=#1A1A1A;" parent="F3-TGmnj43T6yVich3fg-293" vertex="1">
                    <mxGeometry x="30" width="150" height="30" as="geometry">
                        <mxRectangle width="150" height="30" as="alternateBounds"/>
                    </mxGeometry>
                </mxCell>
                <mxCell id="F3-TGmnj43T6yVich3fg-296" value="" style="shape=tableRow;horizontal=0;startSize=0;swimlaneHead=0;swimlaneBody=0;fillColor=none;collapsible=0;dropTarget=0;points=[[0,0.5],[1,0.5]];portConstraint=eastwest;top=0;left=0;right=0;bottom=0;labelBackgroundColor=none;strokeColor=#D0CEE2;fontColor=#1A1A1A;" parent="F3-TGmnj43T6yVich3fg-289" vertex="1">
                    <mxGeometry y="90" width="180" height="30" as="geometry"/>
                </mxCell>
                <mxCell id="F3-TGmnj43T6yVich3fg-297" value="" style="shape=partialRectangle;connectable=0;fillColor=none;top=0;left=0;bottom=0;right=0;editable=1;overflow=hidden;whiteSpace=wrap;html=1;labelBackgroundColor=none;strokeColor=#D0CEE2;fontColor=#1A1A1A;" parent="F3-TGmnj43T6yVich3fg-296" vertex="1">
                    <mxGeometry width="30" height="30" as="geometry">
                        <mxRectangle width="30" height="30" as="alternateBounds"/>
                    </mxGeometry>
                </mxCell>
                <mxCell id="F3-TGmnj43T6yVich3fg-298" value="ID_SUMBER_DATA" style="shape=partialRectangle;connectable=0;fillColor=none;top=0;left=0;bottom=0;right=0;align=left;spacingLeft=6;overflow=hidden;whiteSpace=wrap;html=1;labelBackgroundColor=none;strokeColor=#D0CEE2;fontColor=#1A1A1A;" parent="F3-TGmnj43T6yVich3fg-296" vertex="1">
                    <mxGeometry x="30" width="150" height="30" as="geometry">
                        <mxRectangle width="150" height="30" as="alternateBounds"/>
                    </mxGeometry>
                </mxCell>
                <mxCell id="F3-TGmnj43T6yVich3fg-299" value="" style="shape=tableRow;horizontal=0;startSize=0;swimlaneHead=0;swimlaneBody=0;fillColor=none;collapsible=0;dropTarget=0;points=[[0,0.5],[1,0.5]];portConstraint=eastwest;top=0;left=0;right=0;bottom=0;labelBackgroundColor=none;strokeColor=#D0CEE2;fontColor=#1A1A1A;" parent="F3-TGmnj43T6yVich3fg-289" vertex="1">
                    <mxGeometry y="120" width="180" height="30" as="geometry"/>
                </mxCell>
                <mxCell id="F3-TGmnj43T6yVich3fg-300" value="" style="shape=partialRectangle;connectable=0;fillColor=none;top=0;left=0;bottom=0;right=0;editable=1;overflow=hidden;whiteSpace=wrap;html=1;labelBackgroundColor=none;strokeColor=#D0CEE2;fontColor=#1A1A1A;" parent="F3-TGmnj43T6yVich3fg-299" vertex="1">
                    <mxGeometry width="30" height="30" as="geometry">
                        <mxRectangle width="30" height="30" as="alternateBounds"/>
                    </mxGeometry>
                </mxCell>
                <mxCell id="F3-TGmnj43T6yVich3fg-301" value="ID_PIUTANG" style="shape=partialRectangle;connectable=0;fillColor=none;top=0;left=0;bottom=0;right=0;align=left;spacingLeft=6;overflow=hidden;whiteSpace=wrap;html=1;labelBackgroundColor=none;strokeColor=#D0CEE2;fontColor=#1A1A1A;" parent="F3-TGmnj43T6yVich3fg-299" vertex="1">
                    <mxGeometry x="30" width="150" height="30" as="geometry">
                        <mxRectangle width="150" height="30" as="alternateBounds"/>
                    </mxGeometry>
                </mxCell>
                <mxCell id="F3-TGmnj43T6yVich3fg-302" value="" style="shape=tableRow;horizontal=0;startSize=0;swimlaneHead=0;swimlaneBody=0;fillColor=none;collapsible=0;dropTarget=0;points=[[0,0.5],[1,0.5]];portConstraint=eastwest;top=0;left=0;right=0;bottom=0;labelBackgroundColor=none;strokeColor=#D0CEE2;fontColor=#1A1A1A;" parent="F3-TGmnj43T6yVich3fg-289" vertex="1">
                    <mxGeometry y="150" width="180" height="30" as="geometry"/>
                </mxCell>
                <mxCell id="F3-TGmnj43T6yVich3fg-303" value="" style="shape=partialRectangle;connectable=0;fillColor=none;top=0;left=0;bottom=0;right=0;editable=1;overflow=hidden;whiteSpace=wrap;html=1;labelBackgroundColor=none;strokeColor=#D0CEE2;fontColor=#1A1A1A;" parent="F3-TGmnj43T6yVich3fg-302" vertex="1">
                    <mxGeometry width="30" height="30" as="geometry">
                        <mxRectangle width="30" height="30" as="alternateBounds"/>
                    </mxGeometry>
                </mxCell>
                <mxCell id="F3-TGmnj43T6yVich3fg-304" value="JENIS_SUMBER_DATA" style="shape=partialRectangle;connectable=0;fillColor=none;top=0;left=0;bottom=0;right=0;align=left;spacingLeft=6;overflow=hidden;whiteSpace=wrap;html=1;labelBackgroundColor=none;strokeColor=#D0CEE2;fontColor=#1A1A1A;" parent="F3-TGmnj43T6yVich3fg-302" vertex="1">
                    <mxGeometry x="30" width="150" height="30" as="geometry">
                        <mxRectangle width="150" height="30" as="alternateBounds"/>
                    </mxGeometry>
                </mxCell>
                <mxCell id="F3-TGmnj43T6yVich3fg-305" value="" style="shape=tableRow;horizontal=0;startSize=0;swimlaneHead=0;swimlaneBody=0;fillColor=none;collapsible=0;dropTarget=0;points=[[0,0.5],[1,0.5]];portConstraint=eastwest;top=0;left=0;right=0;bottom=0;labelBackgroundColor=none;strokeColor=#D0CEE2;fontColor=#1A1A1A;" parent="F3-TGmnj43T6yVich3fg-289" vertex="1">
                    <mxGeometry y="180" width="180" height="30" as="geometry"/>
                </mxCell>
                <mxCell id="F3-TGmnj43T6yVich3fg-306" value="" style="shape=partialRectangle;connectable=0;fillColor=none;top=0;left=0;bottom=0;right=0;editable=1;overflow=hidden;whiteSpace=wrap;html=1;labelBackgroundColor=none;strokeColor=#D0CEE2;fontColor=#1A1A1A;" parent="F3-TGmnj43T6yVich3fg-305" vertex="1">
                    <mxGeometry width="30" height="30" as="geometry">
                        <mxRectangle width="30" height="30" as="alternateBounds"/>
                    </mxGeometry>
                </mxCell>
                <mxCell id="F3-TGmnj43T6yVich3fg-307" value="KODE_SATKER" style="shape=partialRectangle;connectable=0;fillColor=none;top=0;left=0;bottom=0;right=0;align=left;spacingLeft=6;overflow=hidden;whiteSpace=wrap;html=1;labelBackgroundColor=none;strokeColor=#D0CEE2;fontColor=#1A1A1A;" parent="F3-TGmnj43T6yVich3fg-305" vertex="1">
                    <mxGeometry x="30" width="150" height="30" as="geometry">
                        <mxRectangle width="150" height="30" as="alternateBounds"/>
                    </mxGeometry>
                </mxCell>
                <mxCell id="F3-TGmnj43T6yVich3fg-308" value="" style="shape=tableRow;horizontal=0;startSize=0;swimlaneHead=0;swimlaneBody=0;fillColor=none;collapsible=0;dropTarget=0;points=[[0,0.5],[1,0.5]];portConstraint=eastwest;top=0;left=0;right=0;bottom=0;labelBackgroundColor=none;strokeColor=#D0CEE2;fontColor=#1A1A1A;" parent="F3-TGmnj43T6yVich3fg-289" vertex="1">
                    <mxGeometry y="210" width="180" height="30" as="geometry"/>
                </mxCell>
                <mxCell id="F3-TGmnj43T6yVich3fg-309" value="" style="shape=partialRectangle;connectable=0;fillColor=none;top=0;left=0;bottom=0;right=0;editable=1;overflow=hidden;whiteSpace=wrap;html=1;labelBackgroundColor=none;strokeColor=#D0CEE2;fontColor=#1A1A1A;" parent="F3-TGmnj43T6yVich3fg-308" vertex="1">
                    <mxGeometry width="30" height="30" as="geometry">
                        <mxRectangle width="30" height="30" as="alternateBounds"/>
                    </mxGeometry>
                </mxCell>
                <mxCell id="F3-TGmnj43T6yVich3fg-310" value="KODE_PERIODE" style="shape=partialRectangle;connectable=0;fillColor=none;top=0;left=0;bottom=0;right=0;align=left;spacingLeft=6;overflow=hidden;whiteSpace=wrap;html=1;labelBackgroundColor=none;strokeColor=#D0CEE2;fontColor=#1A1A1A;" parent="F3-TGmnj43T6yVich3fg-308" vertex="1">
                    <mxGeometry x="30" width="150" height="30" as="geometry">
                        <mxRectangle width="150" height="30" as="alternateBounds"/>
                    </mxGeometry>
                </mxCell>
                <mxCell id="F3-TGmnj43T6yVich3fg-311" value="" style="shape=tableRow;horizontal=0;startSize=0;swimlaneHead=0;swimlaneBody=0;fillColor=none;collapsible=0;dropTarget=0;points=[[0,0.5],[1,0.5]];portConstraint=eastwest;top=0;left=0;right=0;bottom=0;labelBackgroundColor=none;strokeColor=#D0CEE2;fontColor=#1A1A1A;" parent="F3-TGmnj43T6yVich3fg-289" vertex="1">
                    <mxGeometry y="240" width="180" height="30" as="geometry"/>
                </mxCell>
                <mxCell id="F3-TGmnj43T6yVich3fg-312" value="" style="shape=partialRectangle;connectable=0;fillColor=none;top=0;left=0;bottom=0;right=0;editable=1;overflow=hidden;whiteSpace=wrap;html=1;labelBackgroundColor=none;strokeColor=#D0CEE2;fontColor=#1A1A1A;" parent="F3-TGmnj43T6yVich3fg-311" vertex="1">
                    <mxGeometry width="30" height="30" as="geometry">
                        <mxRectangle width="30" height="30" as="alternateBounds"/>
                    </mxGeometry>
                </mxCell>
                <mxCell id="F3-TGmnj43T6yVich3fg-313" value="TANGGAL_SETTLEMENT" style="shape=partialRectangle;connectable=0;fillColor=none;top=0;left=0;bottom=0;right=0;align=left;spacingLeft=6;overflow=hidden;whiteSpace=wrap;html=1;labelBackgroundColor=none;strokeColor=#D0CEE2;fontColor=#1A1A1A;" parent="F3-TGmnj43T6yVich3fg-311" vertex="1">
                    <mxGeometry x="30" width="150" height="30" as="geometry">
                        <mxRectangle width="150" height="30" as="alternateBounds"/>
                    </mxGeometry>
                </mxCell>
                <mxCell id="F3-TGmnj43T6yVich3fg-314" value="" style="shape=tableRow;horizontal=0;startSize=0;swimlaneHead=0;swimlaneBody=0;fillColor=none;collapsible=0;dropTarget=0;points=[[0,0.5],[1,0.5]];portConstraint=eastwest;top=0;left=0;right=0;bottom=0;labelBackgroundColor=none;strokeColor=#D0CEE2;fontColor=#1A1A1A;" parent="F3-TGmnj43T6yVich3fg-289" vertex="1">
                    <mxGeometry y="270" width="180" height="30" as="geometry"/>
                </mxCell>
                <mxCell id="F3-TGmnj43T6yVich3fg-315" value="" style="shape=partialRectangle;connectable=0;fillColor=none;top=0;left=0;bottom=0;right=0;editable=1;overflow=hidden;whiteSpace=wrap;html=1;labelBackgroundColor=none;strokeColor=#D0CEE2;fontColor=#1A1A1A;" parent="F3-TGmnj43T6yVich3fg-314" vertex="1">
                    <mxGeometry width="30" height="30" as="geometry">
                        <mxRectangle width="30" height="30" as="alternateBounds"/>
                    </mxGeometry>
                </mxCell>
                <mxCell id="F3-TGmnj43T6yVich3fg-316" value="NILAI_SETTLEMENT" style="shape=partialRectangle;connectable=0;fillColor=none;top=0;left=0;bottom=0;right=0;align=left;spacingLeft=6;overflow=hidden;whiteSpace=wrap;html=1;labelBackgroundColor=none;strokeColor=#D0CEE2;fontColor=#1A1A1A;" parent="F3-TGmnj43T6yVich3fg-314" vertex="1">
                    <mxGeometry x="30" width="150" height="30" as="geometry">
                        <mxRectangle width="150" height="30" as="alternateBounds"/>
                    </mxGeometry>
                </mxCell>
                <mxCell id="F3-TGmnj43T6yVich3fg-317" value="" style="shape=tableRow;horizontal=0;startSize=0;swimlaneHead=0;swimlaneBody=0;fillColor=none;collapsible=0;dropTarget=0;points=[[0,0.5],[1,0.5]];portConstraint=eastwest;top=0;left=0;right=0;bottom=0;labelBackgroundColor=none;strokeColor=#D0CEE2;fontColor=#1A1A1A;" parent="F3-TGmnj43T6yVich3fg-289" vertex="1">
                    <mxGeometry y="300" width="180" height="30" as="geometry"/>
                </mxCell>
                <mxCell id="F3-TGmnj43T6yVich3fg-318" value="" style="shape=partialRectangle;connectable=0;fillColor=none;top=0;left=0;bottom=0;right=0;editable=1;overflow=hidden;whiteSpace=wrap;html=1;labelBackgroundColor=none;strokeColor=#D0CEE2;fontColor=#1A1A1A;" parent="F3-TGmnj43T6yVich3fg-317" vertex="1">
                    <mxGeometry width="30" height="30" as="geometry">
                        <mxRectangle width="30" height="30" as="alternateBounds"/>
                    </mxGeometry>
                </mxCell>
                <mxCell id="F3-TGmnj43T6yVich3fg-319" value="NO_REF_GL" style="shape=partialRectangle;connectable=0;fillColor=none;top=0;left=0;bottom=0;right=0;align=left;spacingLeft=6;overflow=hidden;whiteSpace=wrap;html=1;labelBackgroundColor=none;strokeColor=#D0CEE2;fontColor=#1A1A1A;" parent="F3-TGmnj43T6yVich3fg-317" vertex="1">
                    <mxGeometry x="30" width="150" height="30" as="geometry">
                        <mxRectangle width="150" height="30" as="alternateBounds"/>
                    </mxGeometry>
                </mxCell>
                <mxCell id="F3-TGmnj43T6yVich3fg-320" value="" style="shape=tableRow;horizontal=0;startSize=0;swimlaneHead=0;swimlaneBody=0;fillColor=none;collapsible=0;dropTarget=0;points=[[0,0.5],[1,0.5]];portConstraint=eastwest;top=0;left=0;right=0;bottom=0;labelBackgroundColor=none;strokeColor=#D0CEE2;fontColor=#1A1A1A;" parent="F3-TGmnj43T6yVich3fg-289" vertex="1">
                    <mxGeometry y="330" width="180" height="30" as="geometry"/>
                </mxCell>
                <mxCell id="F3-TGmnj43T6yVich3fg-321" value="" style="shape=partialRectangle;connectable=0;fillColor=none;top=0;left=0;bottom=0;right=0;editable=1;overflow=hidden;whiteSpace=wrap;html=1;labelBackgroundColor=none;strokeColor=#D0CEE2;fontColor=#1A1A1A;" parent="F3-TGmnj43T6yVich3fg-320" vertex="1">
                    <mxGeometry width="30" height="30" as="geometry">
                        <mxRectangle width="30" height="30" as="alternateBounds"/>
                    </mxGeometry>
                </mxCell>
                <mxCell id="F3-TGmnj43T6yVich3fg-322" value="NO_REF_GL_PSISIH" style="shape=partialRectangle;connectable=0;fillColor=none;top=0;left=0;bottom=0;right=0;align=left;spacingLeft=6;overflow=hidden;whiteSpace=wrap;html=1;labelBackgroundColor=none;strokeColor=#D0CEE2;fontColor=#1A1A1A;" parent="F3-TGmnj43T6yVich3fg-320" vertex="1">
                    <mxGeometry x="30" width="150" height="30" as="geometry">
                        <mxRectangle width="150" height="30" as="alternateBounds"/>
                    </mxGeometry>
                </mxCell>
                <mxCell id="F3-TGmnj43T6yVich3fg-326" value="ARE_T_SISIH_PIUTANG_DTL" style="shape=table;startSize=30;container=1;collapsible=1;childLayout=tableLayout;fixedRows=1;rowLines=0;fontStyle=1;align=center;resizeLast=1;html=1;labelBackgroundColor=none;fillColor=#5D7F99;strokeColor=#D0CEE2;fontColor=#1A1A1A;" parent="1" vertex="1">
                    <mxGeometry x="720" y="1140" width="180" height="390" as="geometry">
                        <mxRectangle x="70" y="550" width="200" height="30" as="alternateBounds"/>
                    </mxGeometry>
                </mxCell>
                <mxCell id="F3-TGmnj43T6yVich3fg-327" value="" style="shape=tableRow;horizontal=0;startSize=0;swimlaneHead=0;swimlaneBody=0;fillColor=none;collapsible=0;dropTarget=0;points=[[0,0.5],[1,0.5]];portConstraint=eastwest;top=0;left=0;right=0;bottom=1;labelBackgroundColor=none;strokeColor=#D0CEE2;fontColor=#1A1A1A;" parent="F3-TGmnj43T6yVich3fg-326" vertex="1">
                    <mxGeometry y="30" width="180" height="30" as="geometry"/>
                </mxCell>
                <mxCell id="F3-TGmnj43T6yVich3fg-328" value="PK" style="shape=partialRectangle;connectable=0;fillColor=none;top=0;left=0;bottom=0;right=0;fontStyle=1;overflow=hidden;whiteSpace=wrap;html=1;labelBackgroundColor=none;strokeColor=#D0CEE2;fontColor=#1A1A1A;" parent="F3-TGmnj43T6yVich3fg-327" vertex="1">
                    <mxGeometry width="30" height="30" as="geometry">
                        <mxRectangle width="30" height="30" as="alternateBounds"/>
                    </mxGeometry>
                </mxCell>
                <mxCell id="F3-TGmnj43T6yVich3fg-329" value="ID" style="shape=partialRectangle;connectable=0;fillColor=none;top=0;left=0;bottom=0;right=0;align=left;spacingLeft=6;fontStyle=5;overflow=hidden;whiteSpace=wrap;html=1;labelBackgroundColor=none;strokeColor=#D0CEE2;fontColor=#1A1A1A;" parent="F3-TGmnj43T6yVich3fg-327" vertex="1">
                    <mxGeometry x="30" width="150" height="30" as="geometry">
                        <mxRectangle width="150" height="30" as="alternateBounds"/>
                    </mxGeometry>
                </mxCell>
                <mxCell id="F3-TGmnj43T6yVich3fg-330" value="" style="shape=tableRow;horizontal=0;startSize=0;swimlaneHead=0;swimlaneBody=0;fillColor=none;collapsible=0;dropTarget=0;points=[[0,0.5],[1,0.5]];portConstraint=eastwest;top=0;left=0;right=0;bottom=0;labelBackgroundColor=none;strokeColor=#D0CEE2;fontColor=#1A1A1A;" parent="F3-TGmnj43T6yVich3fg-326" vertex="1">
                    <mxGeometry y="60" width="180" height="30" as="geometry"/>
                </mxCell>
                <mxCell id="F3-TGmnj43T6yVich3fg-331" value="" style="shape=partialRectangle;connectable=0;fillColor=none;top=0;left=0;bottom=0;right=0;editable=1;overflow=hidden;whiteSpace=wrap;html=1;labelBackgroundColor=none;strokeColor=#D0CEE2;fontColor=#1A1A1A;" parent="F3-TGmnj43T6yVich3fg-330" vertex="1">
                    <mxGeometry width="30" height="30" as="geometry">
                        <mxRectangle width="30" height="30" as="alternateBounds"/>
                    </mxGeometry>
                </mxCell>
                <mxCell id="F3-TGmnj43T6yVich3fg-332" value="ID_SISIH_HDR" style="shape=partialRectangle;connectable=0;fillColor=none;top=0;left=0;bottom=0;right=0;align=left;spacingLeft=6;overflow=hidden;whiteSpace=wrap;html=1;labelBackgroundColor=none;strokeColor=#D0CEE2;fontColor=#1A1A1A;" parent="F3-TGmnj43T6yVich3fg-330" vertex="1">
                    <mxGeometry x="30" width="150" height="30" as="geometry">
                        <mxRectangle width="150" height="30" as="alternateBounds"/>
                    </mxGeometry>
                </mxCell>
                <mxCell id="F3-TGmnj43T6yVich3fg-333" value="" style="shape=tableRow;horizontal=0;startSize=0;swimlaneHead=0;swimlaneBody=0;fillColor=none;collapsible=0;dropTarget=0;points=[[0,0.5],[1,0.5]];portConstraint=eastwest;top=0;left=0;right=0;bottom=0;labelBackgroundColor=none;strokeColor=#D0CEE2;fontColor=#1A1A1A;" parent="F3-TGmnj43T6yVich3fg-326" vertex="1">
                    <mxGeometry y="90" width="180" height="30" as="geometry"/>
                </mxCell>
                <mxCell id="F3-TGmnj43T6yVich3fg-334" value="" style="shape=partialRectangle;connectable=0;fillColor=none;top=0;left=0;bottom=0;right=0;editable=1;overflow=hidden;whiteSpace=wrap;html=1;labelBackgroundColor=none;strokeColor=#D0CEE2;fontColor=#1A1A1A;" parent="F3-TGmnj43T6yVich3fg-333" vertex="1">
                    <mxGeometry width="30" height="30" as="geometry">
                        <mxRectangle width="30" height="30" as="alternateBounds"/>
                    </mxGeometry>
                </mxCell>
                <mxCell id="F3-TGmnj43T6yVich3fg-335" value="KODE_SATKER" style="shape=partialRectangle;connectable=0;fillColor=none;top=0;left=0;bottom=0;right=0;align=left;spacingLeft=6;overflow=hidden;whiteSpace=wrap;html=1;labelBackgroundColor=none;strokeColor=#D0CEE2;fontColor=#1A1A1A;" parent="F3-TGmnj43T6yVich3fg-333" vertex="1">
                    <mxGeometry x="30" width="150" height="30" as="geometry">
                        <mxRectangle width="150" height="30" as="alternateBounds"/>
                    </mxGeometry>
                </mxCell>
                <mxCell id="F3-TGmnj43T6yVich3fg-336" value="" style="shape=tableRow;horizontal=0;startSize=0;swimlaneHead=0;swimlaneBody=0;fillColor=none;collapsible=0;dropTarget=0;points=[[0,0.5],[1,0.5]];portConstraint=eastwest;top=0;left=0;right=0;bottom=0;labelBackgroundColor=none;strokeColor=#D0CEE2;fontColor=#1A1A1A;" parent="F3-TGmnj43T6yVich3fg-326" vertex="1">
                    <mxGeometry y="120" width="180" height="30" as="geometry"/>
                </mxCell>
                <mxCell id="F3-TGmnj43T6yVich3fg-337" value="" style="shape=partialRectangle;connectable=0;fillColor=none;top=0;left=0;bottom=0;right=0;editable=1;overflow=hidden;whiteSpace=wrap;html=1;labelBackgroundColor=none;strokeColor=#D0CEE2;fontColor=#1A1A1A;" parent="F3-TGmnj43T6yVich3fg-336" vertex="1">
                    <mxGeometry width="30" height="30" as="geometry">
                        <mxRectangle width="30" height="30" as="alternateBounds"/>
                    </mxGeometry>
                </mxCell>
                <mxCell id="F3-TGmnj43T6yVich3fg-338" value="NO_TRANSAKSI" style="shape=partialRectangle;connectable=0;fillColor=none;top=0;left=0;bottom=0;right=0;align=left;spacingLeft=6;overflow=hidden;whiteSpace=wrap;html=1;labelBackgroundColor=none;strokeColor=#D0CEE2;fontColor=#1A1A1A;" parent="F3-TGmnj43T6yVich3fg-336" vertex="1">
                    <mxGeometry x="30" width="150" height="30" as="geometry">
                        <mxRectangle width="150" height="30" as="alternateBounds"/>
                    </mxGeometry>
                </mxCell>
                <mxCell id="F3-TGmnj43T6yVich3fg-339" value="" style="shape=tableRow;horizontal=0;startSize=0;swimlaneHead=0;swimlaneBody=0;fillColor=none;collapsible=0;dropTarget=0;points=[[0,0.5],[1,0.5]];portConstraint=eastwest;top=0;left=0;right=0;bottom=0;labelBackgroundColor=none;strokeColor=#D0CEE2;fontColor=#1A1A1A;" parent="F3-TGmnj43T6yVich3fg-326" vertex="1">
                    <mxGeometry y="150" width="180" height="30" as="geometry"/>
                </mxCell>
                <mxCell id="F3-TGmnj43T6yVich3fg-340" value="" style="shape=partialRectangle;connectable=0;fillColor=none;top=0;left=0;bottom=0;right=0;editable=1;overflow=hidden;whiteSpace=wrap;html=1;labelBackgroundColor=none;strokeColor=#D0CEE2;fontColor=#1A1A1A;" parent="F3-TGmnj43T6yVich3fg-339" vertex="1">
                    <mxGeometry width="30" height="30" as="geometry">
                        <mxRectangle width="30" height="30" as="alternateBounds"/>
                    </mxGeometry>
                </mxCell>
                <mxCell id="F3-TGmnj43T6yVich3fg-341" value="TANGGAL_SISIH" style="shape=partialRectangle;connectable=0;fillColor=none;top=0;left=0;bottom=0;right=0;align=left;spacingLeft=6;overflow=hidden;whiteSpace=wrap;html=1;labelBackgroundColor=none;strokeColor=#D0CEE2;fontColor=#1A1A1A;" parent="F3-TGmnj43T6yVich3fg-339" vertex="1">
                    <mxGeometry x="30" width="150" height="30" as="geometry">
                        <mxRectangle width="150" height="30" as="alternateBounds"/>
                    </mxGeometry>
                </mxCell>
                <mxCell id="F3-TGmnj43T6yVich3fg-342" value="" style="shape=tableRow;horizontal=0;startSize=0;swimlaneHead=0;swimlaneBody=0;fillColor=none;collapsible=0;dropTarget=0;points=[[0,0.5],[1,0.5]];portConstraint=eastwest;top=0;left=0;right=0;bottom=0;labelBackgroundColor=none;strokeColor=#D0CEE2;fontColor=#1A1A1A;" parent="F3-TGmnj43T6yVich3fg-326" vertex="1">
                    <mxGeometry y="180" width="180" height="30" as="geometry"/>
                </mxCell>
                <mxCell id="F3-TGmnj43T6yVich3fg-343" value="" style="shape=partialRectangle;connectable=0;fillColor=none;top=0;left=0;bottom=0;right=0;editable=1;overflow=hidden;whiteSpace=wrap;html=1;labelBackgroundColor=none;strokeColor=#D0CEE2;fontColor=#1A1A1A;" parent="F3-TGmnj43T6yVich3fg-342" vertex="1">
                    <mxGeometry width="30" height="30" as="geometry">
                        <mxRectangle width="30" height="30" as="alternateBounds"/>
                    </mxGeometry>
                </mxCell>
                <mxCell id="F3-TGmnj43T6yVich3fg-344" value="KODE_PERIODE" style="shape=partialRectangle;connectable=0;fillColor=none;top=0;left=0;bottom=0;right=0;align=left;spacingLeft=6;overflow=hidden;whiteSpace=wrap;html=1;labelBackgroundColor=none;strokeColor=#D0CEE2;fontColor=#1A1A1A;" parent="F3-TGmnj43T6yVich3fg-342" vertex="1">
                    <mxGeometry x="30" width="150" height="30" as="geometry">
                        <mxRectangle width="150" height="30" as="alternateBounds"/>
                    </mxGeometry>
                </mxCell>
                <mxCell id="F3-TGmnj43T6yVich3fg-345" value="" style="shape=tableRow;horizontal=0;startSize=0;swimlaneHead=0;swimlaneBody=0;fillColor=none;collapsible=0;dropTarget=0;points=[[0,0.5],[1,0.5]];portConstraint=eastwest;top=0;left=0;right=0;bottom=0;labelBackgroundColor=none;strokeColor=#D0CEE2;fontColor=#1A1A1A;" parent="F3-TGmnj43T6yVich3fg-326" vertex="1">
                    <mxGeometry y="210" width="180" height="30" as="geometry"/>
                </mxCell>
                <mxCell id="F3-TGmnj43T6yVich3fg-346" value="" style="shape=partialRectangle;connectable=0;fillColor=none;top=0;left=0;bottom=0;right=0;editable=1;overflow=hidden;whiteSpace=wrap;html=1;labelBackgroundColor=none;strokeColor=#D0CEE2;fontColor=#1A1A1A;" parent="F3-TGmnj43T6yVich3fg-345" vertex="1">
                    <mxGeometry width="30" height="30" as="geometry">
                        <mxRectangle width="30" height="30" as="alternateBounds"/>
                    </mxGeometry>
                </mxCell>
                <mxCell id="F3-TGmnj43T6yVich3fg-347" value="ID_PIUTANG" style="shape=partialRectangle;connectable=0;fillColor=none;top=0;left=0;bottom=0;right=0;align=left;spacingLeft=6;overflow=hidden;whiteSpace=wrap;html=1;labelBackgroundColor=none;strokeColor=#D0CEE2;fontColor=#1A1A1A;" parent="F3-TGmnj43T6yVich3fg-345" vertex="1">
                    <mxGeometry x="30" width="150" height="30" as="geometry">
                        <mxRectangle width="150" height="30" as="alternateBounds"/>
                    </mxGeometry>
                </mxCell>
                <mxCell id="F3-TGmnj43T6yVich3fg-348" value="" style="shape=tableRow;horizontal=0;startSize=0;swimlaneHead=0;swimlaneBody=0;fillColor=none;collapsible=0;dropTarget=0;points=[[0,0.5],[1,0.5]];portConstraint=eastwest;top=0;left=0;right=0;bottom=0;labelBackgroundColor=none;strokeColor=#D0CEE2;fontColor=#1A1A1A;" parent="F3-TGmnj43T6yVich3fg-326" vertex="1">
                    <mxGeometry y="240" width="180" height="30" as="geometry"/>
                </mxCell>
                <mxCell id="F3-TGmnj43T6yVich3fg-349" value="" style="shape=partialRectangle;connectable=0;fillColor=none;top=0;left=0;bottom=0;right=0;editable=1;overflow=hidden;whiteSpace=wrap;html=1;labelBackgroundColor=none;strokeColor=#D0CEE2;fontColor=#1A1A1A;" parent="F3-TGmnj43T6yVich3fg-348" vertex="1">
                    <mxGeometry width="30" height="30" as="geometry">
                        <mxRectangle width="30" height="30" as="alternateBounds"/>
                    </mxGeometry>
                </mxCell>
                <mxCell id="F3-TGmnj43T6yVich3fg-350" value="NILAI_SISIH_LAMA" style="shape=partialRectangle;connectable=0;fillColor=none;top=0;left=0;bottom=0;right=0;align=left;spacingLeft=6;overflow=hidden;whiteSpace=wrap;html=1;labelBackgroundColor=none;strokeColor=#D0CEE2;fontColor=#1A1A1A;" parent="F3-TGmnj43T6yVich3fg-348" vertex="1">
                    <mxGeometry x="30" width="150" height="30" as="geometry">
                        <mxRectangle width="150" height="30" as="alternateBounds"/>
                    </mxGeometry>
                </mxCell>
                <mxCell id="F3-TGmnj43T6yVich3fg-351" value="" style="shape=tableRow;horizontal=0;startSize=0;swimlaneHead=0;swimlaneBody=0;fillColor=none;collapsible=0;dropTarget=0;points=[[0,0.5],[1,0.5]];portConstraint=eastwest;top=0;left=0;right=0;bottom=0;labelBackgroundColor=none;strokeColor=#D0CEE2;fontColor=#1A1A1A;" parent="F3-TGmnj43T6yVich3fg-326" vertex="1">
                    <mxGeometry y="270" width="180" height="30" as="geometry"/>
                </mxCell>
                <mxCell id="F3-TGmnj43T6yVich3fg-352" value="" style="shape=partialRectangle;connectable=0;fillColor=none;top=0;left=0;bottom=0;right=0;editable=1;overflow=hidden;whiteSpace=wrap;html=1;labelBackgroundColor=none;strokeColor=#D0CEE2;fontColor=#1A1A1A;" parent="F3-TGmnj43T6yVich3fg-351" vertex="1">
                    <mxGeometry width="30" height="30" as="geometry">
                        <mxRectangle width="30" height="30" as="alternateBounds"/>
                    </mxGeometry>
                </mxCell>
                <mxCell id="F3-TGmnj43T6yVich3fg-353" value="NILAI_SISIH" style="shape=partialRectangle;connectable=0;fillColor=none;top=0;left=0;bottom=0;right=0;align=left;spacingLeft=6;overflow=hidden;whiteSpace=wrap;html=1;labelBackgroundColor=none;strokeColor=#D0CEE2;fontColor=#1A1A1A;" parent="F3-TGmnj43T6yVich3fg-351" vertex="1">
                    <mxGeometry x="30" width="150" height="30" as="geometry">
                        <mxRectangle width="150" height="30" as="alternateBounds"/>
                    </mxGeometry>
                </mxCell>
                <mxCell id="F3-TGmnj43T6yVich3fg-354" value="" style="shape=tableRow;horizontal=0;startSize=0;swimlaneHead=0;swimlaneBody=0;fillColor=none;collapsible=0;dropTarget=0;points=[[0,0.5],[1,0.5]];portConstraint=eastwest;top=0;left=0;right=0;bottom=0;labelBackgroundColor=none;strokeColor=#D0CEE2;fontColor=#1A1A1A;" parent="F3-TGmnj43T6yVich3fg-326" vertex="1">
                    <mxGeometry y="300" width="180" height="30" as="geometry"/>
                </mxCell>
                <mxCell id="F3-TGmnj43T6yVich3fg-355" value="" style="shape=partialRectangle;connectable=0;fillColor=none;top=0;left=0;bottom=0;right=0;editable=1;overflow=hidden;whiteSpace=wrap;html=1;labelBackgroundColor=none;strokeColor=#D0CEE2;fontColor=#1A1A1A;" parent="F3-TGmnj43T6yVich3fg-354" vertex="1">
                    <mxGeometry width="30" height="30" as="geometry">
                        <mxRectangle width="30" height="30" as="alternateBounds"/>
                    </mxGeometry>
                </mxCell>
                <mxCell id="F3-TGmnj43T6yVich3fg-356" value="DELTA_NILAI_SISIH_LAMA" style="shape=partialRectangle;connectable=0;fillColor=none;top=0;left=0;bottom=0;right=0;align=left;spacingLeft=6;overflow=hidden;whiteSpace=wrap;html=1;labelBackgroundColor=none;strokeColor=#D0CEE2;fontColor=#1A1A1A;" parent="F3-TGmnj43T6yVich3fg-354" vertex="1">
                    <mxGeometry x="30" width="150" height="30" as="geometry">
                        <mxRectangle width="150" height="30" as="alternateBounds"/>
                    </mxGeometry>
                </mxCell>
                <mxCell id="F3-TGmnj43T6yVich3fg-357" value="" style="shape=tableRow;horizontal=0;startSize=0;swimlaneHead=0;swimlaneBody=0;fillColor=none;collapsible=0;dropTarget=0;points=[[0,0.5],[1,0.5]];portConstraint=eastwest;top=0;left=0;right=0;bottom=0;labelBackgroundColor=none;strokeColor=#D0CEE2;fontColor=#1A1A1A;" parent="F3-TGmnj43T6yVich3fg-326" vertex="1">
                    <mxGeometry y="330" width="180" height="30" as="geometry"/>
                </mxCell>
                <mxCell id="F3-TGmnj43T6yVich3fg-358" value="" style="shape=partialRectangle;connectable=0;fillColor=none;top=0;left=0;bottom=0;right=0;editable=1;overflow=hidden;whiteSpace=wrap;html=1;labelBackgroundColor=none;strokeColor=#D0CEE2;fontColor=#1A1A1A;" parent="F3-TGmnj43T6yVich3fg-357" vertex="1">
                    <mxGeometry width="30" height="30" as="geometry">
                        <mxRectangle width="30" height="30" as="alternateBounds"/>
                    </mxGeometry>
                </mxCell>
                <mxCell id="F3-TGmnj43T6yVich3fg-359" value="STATUS_PIUTANG_LAMA" style="shape=partialRectangle;connectable=0;fillColor=none;top=0;left=0;bottom=0;right=0;align=left;spacingLeft=6;overflow=hidden;whiteSpace=wrap;html=1;labelBackgroundColor=none;strokeColor=#D0CEE2;fontColor=#1A1A1A;" parent="F3-TGmnj43T6yVich3fg-357" vertex="1">
                    <mxGeometry x="30" width="150" height="30" as="geometry">
                        <mxRectangle width="150" height="30" as="alternateBounds"/>
                    </mxGeometry>
                </mxCell>
                <mxCell id="F3-TGmnj43T6yVich3fg-360" value="" style="shape=tableRow;horizontal=0;startSize=0;swimlaneHead=0;swimlaneBody=0;fillColor=none;collapsible=0;dropTarget=0;points=[[0,0.5],[1,0.5]];portConstraint=eastwest;top=0;left=0;right=0;bottom=0;labelBackgroundColor=none;strokeColor=#D0CEE2;fontColor=#1A1A1A;" parent="F3-TGmnj43T6yVich3fg-326" vertex="1">
                    <mxGeometry y="360" width="180" height="30" as="geometry"/>
                </mxCell>
                <mxCell id="F3-TGmnj43T6yVich3fg-361" value="" style="shape=partialRectangle;connectable=0;fillColor=none;top=0;left=0;bottom=0;right=0;editable=1;overflow=hidden;whiteSpace=wrap;html=1;labelBackgroundColor=none;strokeColor=#D0CEE2;fontColor=#1A1A1A;" parent="F3-TGmnj43T6yVich3fg-360" vertex="1">
                    <mxGeometry width="30" height="30" as="geometry">
                        <mxRectangle width="30" height="30" as="alternateBounds"/>
                    </mxGeometry>
                </mxCell>
                <mxCell id="F3-TGmnj43T6yVich3fg-362" value="STATUS_PIUTANG" style="shape=partialRectangle;connectable=0;fillColor=none;top=0;left=0;bottom=0;right=0;align=left;spacingLeft=6;overflow=hidden;whiteSpace=wrap;html=1;labelBackgroundColor=none;strokeColor=#D0CEE2;fontColor=#1A1A1A;" parent="F3-TGmnj43T6yVich3fg-360" vertex="1">
                    <mxGeometry x="30" width="150" height="30" as="geometry">
                        <mxRectangle width="150" height="30" as="alternateBounds"/>
                    </mxGeometry>
                </mxCell>
                <mxCell id="F3-TGmnj43T6yVich3fg-363" value="ARE_T_SISIH_PIUTANG_HDR" style="shape=table;startSize=30;container=1;collapsible=1;childLayout=tableLayout;fixedRows=1;rowLines=0;fontStyle=1;align=center;resizeLast=1;html=1;labelBackgroundColor=none;fillColor=#5D7F99;strokeColor=#D0CEE2;fontColor=#1A1A1A;" parent="1" vertex="1">
                    <mxGeometry x="960" y="1170" width="180" height="270" as="geometry">
                        <mxRectangle x="70" y="550" width="200" height="30" as="alternateBounds"/>
                    </mxGeometry>
                </mxCell>
                <mxCell id="F3-TGmnj43T6yVich3fg-364" value="" style="shape=tableRow;horizontal=0;startSize=0;swimlaneHead=0;swimlaneBody=0;fillColor=none;collapsible=0;dropTarget=0;points=[[0,0.5],[1,0.5]];portConstraint=eastwest;top=0;left=0;right=0;bottom=1;labelBackgroundColor=none;strokeColor=#D0CEE2;fontColor=#1A1A1A;" parent="F3-TGmnj43T6yVich3fg-363" vertex="1">
                    <mxGeometry y="30" width="180" height="30" as="geometry"/>
                </mxCell>
                <mxCell id="F3-TGmnj43T6yVich3fg-365" value="PK" style="shape=partialRectangle;connectable=0;fillColor=none;top=0;left=0;bottom=0;right=0;fontStyle=1;overflow=hidden;whiteSpace=wrap;html=1;labelBackgroundColor=none;strokeColor=#D0CEE2;fontColor=#1A1A1A;" parent="F3-TGmnj43T6yVich3fg-364" vertex="1">
                    <mxGeometry width="30" height="30" as="geometry">
                        <mxRectangle width="30" height="30" as="alternateBounds"/>
                    </mxGeometry>
                </mxCell>
                <mxCell id="F3-TGmnj43T6yVich3fg-366" value="ID" style="shape=partialRectangle;connectable=0;fillColor=none;top=0;left=0;bottom=0;right=0;align=left;spacingLeft=6;fontStyle=5;overflow=hidden;whiteSpace=wrap;html=1;labelBackgroundColor=none;strokeColor=#D0CEE2;fontColor=#1A1A1A;" parent="F3-TGmnj43T6yVich3fg-364" vertex="1">
                    <mxGeometry x="30" width="150" height="30" as="geometry">
                        <mxRectangle width="150" height="30" as="alternateBounds"/>
                    </mxGeometry>
                </mxCell>
                <mxCell id="F3-TGmnj43T6yVich3fg-367" value="" style="shape=tableRow;horizontal=0;startSize=0;swimlaneHead=0;swimlaneBody=0;fillColor=none;collapsible=0;dropTarget=0;points=[[0,0.5],[1,0.5]];portConstraint=eastwest;top=0;left=0;right=0;bottom=0;labelBackgroundColor=none;strokeColor=#D0CEE2;fontColor=#1A1A1A;" parent="F3-TGmnj43T6yVich3fg-363" vertex="1">
                    <mxGeometry y="60" width="180" height="30" as="geometry"/>
                </mxCell>
                <mxCell id="F3-TGmnj43T6yVich3fg-368" value="" style="shape=partialRectangle;connectable=0;fillColor=none;top=0;left=0;bottom=0;right=0;editable=1;overflow=hidden;whiteSpace=wrap;html=1;labelBackgroundColor=none;strokeColor=#D0CEE2;fontColor=#1A1A1A;" parent="F3-TGmnj43T6yVich3fg-367" vertex="1">
                    <mxGeometry width="30" height="30" as="geometry">
                        <mxRectangle width="30" height="30" as="alternateBounds"/>
                    </mxGeometry>
                </mxCell>
                <mxCell id="F3-TGmnj43T6yVich3fg-369" value="KODE_PERIODE" style="shape=partialRectangle;connectable=0;fillColor=none;top=0;left=0;bottom=0;right=0;align=left;spacingLeft=6;overflow=hidden;whiteSpace=wrap;html=1;labelBackgroundColor=none;strokeColor=#D0CEE2;fontColor=#1A1A1A;" parent="F3-TGmnj43T6yVich3fg-367" vertex="1">
                    <mxGeometry x="30" width="150" height="30" as="geometry">
                        <mxRectangle width="150" height="30" as="alternateBounds"/>
                    </mxGeometry>
                </mxCell>
                <mxCell id="F3-TGmnj43T6yVich3fg-370" value="" style="shape=tableRow;horizontal=0;startSize=0;swimlaneHead=0;swimlaneBody=0;fillColor=none;collapsible=0;dropTarget=0;points=[[0,0.5],[1,0.5]];portConstraint=eastwest;top=0;left=0;right=0;bottom=0;labelBackgroundColor=none;strokeColor=#D0CEE2;fontColor=#1A1A1A;" parent="F3-TGmnj43T6yVich3fg-363" vertex="1">
                    <mxGeometry y="90" width="180" height="30" as="geometry"/>
                </mxCell>
                <mxCell id="F3-TGmnj43T6yVich3fg-371" value="" style="shape=partialRectangle;connectable=0;fillColor=none;top=0;left=0;bottom=0;right=0;editable=1;overflow=hidden;whiteSpace=wrap;html=1;labelBackgroundColor=none;strokeColor=#D0CEE2;fontColor=#1A1A1A;" parent="F3-TGmnj43T6yVich3fg-370" vertex="1">
                    <mxGeometry width="30" height="30" as="geometry">
                        <mxRectangle width="30" height="30" as="alternateBounds"/>
                    </mxGeometry>
                </mxCell>
                <mxCell id="F3-TGmnj43T6yVich3fg-372" value="KODE_SATKER" style="shape=partialRectangle;connectable=0;fillColor=none;top=0;left=0;bottom=0;right=0;align=left;spacingLeft=6;overflow=hidden;whiteSpace=wrap;html=1;labelBackgroundColor=none;strokeColor=#D0CEE2;fontColor=#1A1A1A;" parent="F3-TGmnj43T6yVich3fg-370" vertex="1">
                    <mxGeometry x="30" width="150" height="30" as="geometry">
                        <mxRectangle width="150" height="30" as="alternateBounds"/>
                    </mxGeometry>
                </mxCell>
                <mxCell id="F3-TGmnj43T6yVich3fg-373" value="" style="shape=tableRow;horizontal=0;startSize=0;swimlaneHead=0;swimlaneBody=0;fillColor=none;collapsible=0;dropTarget=0;points=[[0,0.5],[1,0.5]];portConstraint=eastwest;top=0;left=0;right=0;bottom=0;labelBackgroundColor=none;strokeColor=#D0CEE2;fontColor=#1A1A1A;" parent="F3-TGmnj43T6yVich3fg-363" vertex="1">
                    <mxGeometry y="120" width="180" height="30" as="geometry"/>
                </mxCell>
                <mxCell id="F3-TGmnj43T6yVich3fg-374" value="" style="shape=partialRectangle;connectable=0;fillColor=none;top=0;left=0;bottom=0;right=0;editable=1;overflow=hidden;whiteSpace=wrap;html=1;labelBackgroundColor=none;strokeColor=#D0CEE2;fontColor=#1A1A1A;" parent="F3-TGmnj43T6yVich3fg-373" vertex="1">
                    <mxGeometry width="30" height="30" as="geometry">
                        <mxRectangle width="30" height="30" as="alternateBounds"/>
                    </mxGeometry>
                </mxCell>
                <mxCell id="F3-TGmnj43T6yVich3fg-375" value="KODE_AKUN" style="shape=partialRectangle;connectable=0;fillColor=none;top=0;left=0;bottom=0;right=0;align=left;spacingLeft=6;overflow=hidden;whiteSpace=wrap;html=1;labelBackgroundColor=none;strokeColor=#D0CEE2;fontColor=#1A1A1A;" parent="F3-TGmnj43T6yVich3fg-373" vertex="1">
                    <mxGeometry x="30" width="150" height="30" as="geometry">
                        <mxRectangle width="150" height="30" as="alternateBounds"/>
                    </mxGeometry>
                </mxCell>
                <mxCell id="F3-TGmnj43T6yVich3fg-376" value="" style="shape=tableRow;horizontal=0;startSize=0;swimlaneHead=0;swimlaneBody=0;fillColor=none;collapsible=0;dropTarget=0;points=[[0,0.5],[1,0.5]];portConstraint=eastwest;top=0;left=0;right=0;bottom=0;labelBackgroundColor=none;strokeColor=#D0CEE2;fontColor=#1A1A1A;" parent="F3-TGmnj43T6yVich3fg-363" vertex="1">
                    <mxGeometry y="150" width="180" height="30" as="geometry"/>
                </mxCell>
                <mxCell id="F3-TGmnj43T6yVich3fg-377" value="" style="shape=partialRectangle;connectable=0;fillColor=none;top=0;left=0;bottom=0;right=0;editable=1;overflow=hidden;whiteSpace=wrap;html=1;labelBackgroundColor=none;strokeColor=#D0CEE2;fontColor=#1A1A1A;" parent="F3-TGmnj43T6yVich3fg-376" vertex="1">
                    <mxGeometry width="30" height="30" as="geometry">
                        <mxRectangle width="30" height="30" as="alternateBounds"/>
                    </mxGeometry>
                </mxCell>
                <mxCell id="F3-TGmnj43T6yVich3fg-378" value="NO_TRANSAKSI" style="shape=partialRectangle;connectable=0;fillColor=none;top=0;left=0;bottom=0;right=0;align=left;spacingLeft=6;overflow=hidden;whiteSpace=wrap;html=1;labelBackgroundColor=none;strokeColor=#D0CEE2;fontColor=#1A1A1A;" parent="F3-TGmnj43T6yVich3fg-376" vertex="1">
                    <mxGeometry x="30" width="150" height="30" as="geometry">
                        <mxRectangle width="150" height="30" as="alternateBounds"/>
                    </mxGeometry>
                </mxCell>
                <mxCell id="F3-TGmnj43T6yVich3fg-379" value="" style="shape=tableRow;horizontal=0;startSize=0;swimlaneHead=0;swimlaneBody=0;fillColor=none;collapsible=0;dropTarget=0;points=[[0,0.5],[1,0.5]];portConstraint=eastwest;top=0;left=0;right=0;bottom=0;labelBackgroundColor=none;strokeColor=#D0CEE2;fontColor=#1A1A1A;" parent="F3-TGmnj43T6yVich3fg-363" vertex="1">
                    <mxGeometry y="180" width="180" height="30" as="geometry"/>
                </mxCell>
                <mxCell id="F3-TGmnj43T6yVich3fg-380" value="" style="shape=partialRectangle;connectable=0;fillColor=none;top=0;left=0;bottom=0;right=0;editable=1;overflow=hidden;whiteSpace=wrap;html=1;labelBackgroundColor=none;strokeColor=#D0CEE2;fontColor=#1A1A1A;" parent="F3-TGmnj43T6yVich3fg-379" vertex="1">
                    <mxGeometry width="30" height="30" as="geometry">
                        <mxRectangle width="30" height="30" as="alternateBounds"/>
                    </mxGeometry>
                </mxCell>
                <mxCell id="F3-TGmnj43T6yVich3fg-381" value="NILAI_SISIH" style="shape=partialRectangle;connectable=0;fillColor=none;top=0;left=0;bottom=0;right=0;align=left;spacingLeft=6;overflow=hidden;whiteSpace=wrap;html=1;labelBackgroundColor=none;strokeColor=#D0CEE2;fontColor=#1A1A1A;" parent="F3-TGmnj43T6yVich3fg-379" vertex="1">
                    <mxGeometry x="30" width="150" height="30" as="geometry">
                        <mxRectangle width="150" height="30" as="alternateBounds"/>
                    </mxGeometry>
                </mxCell>
                <mxCell id="F3-TGmnj43T6yVich3fg-382" value="" style="shape=tableRow;horizontal=0;startSize=0;swimlaneHead=0;swimlaneBody=0;fillColor=none;collapsible=0;dropTarget=0;points=[[0,0.5],[1,0.5]];portConstraint=eastwest;top=0;left=0;right=0;bottom=0;labelBackgroundColor=none;strokeColor=#D0CEE2;fontColor=#1A1A1A;" parent="F3-TGmnj43T6yVich3fg-363" vertex="1">
                    <mxGeometry y="210" width="180" height="30" as="geometry"/>
                </mxCell>
                <mxCell id="F3-TGmnj43T6yVich3fg-383" value="" style="shape=partialRectangle;connectable=0;fillColor=none;top=0;left=0;bottom=0;right=0;editable=1;overflow=hidden;whiteSpace=wrap;html=1;labelBackgroundColor=none;strokeColor=#D0CEE2;fontColor=#1A1A1A;" parent="F3-TGmnj43T6yVich3fg-382" vertex="1">
                    <mxGeometry width="30" height="30" as="geometry">
                        <mxRectangle width="30" height="30" as="alternateBounds"/>
                    </mxGeometry>
                </mxCell>
                <mxCell id="F3-TGmnj43T6yVich3fg-384" value="DELTA_NILAI_SISIH" style="shape=partialRectangle;connectable=0;fillColor=none;top=0;left=0;bottom=0;right=0;align=left;spacingLeft=6;overflow=hidden;whiteSpace=wrap;html=1;labelBackgroundColor=none;strokeColor=#D0CEE2;fontColor=#1A1A1A;" parent="F3-TGmnj43T6yVich3fg-382" vertex="1">
                    <mxGeometry x="30" width="150" height="30" as="geometry">
                        <mxRectangle width="150" height="30" as="alternateBounds"/>
                    </mxGeometry>
                </mxCell>
                <mxCell id="F3-TGmnj43T6yVich3fg-385" value="" style="shape=tableRow;horizontal=0;startSize=0;swimlaneHead=0;swimlaneBody=0;fillColor=#B5B55B;collapsible=0;dropTarget=0;points=[[0,0.5],[1,0.5]];portConstraint=eastwest;top=0;left=0;right=0;bottom=0;labelBackgroundColor=none;strokeColor=#D0CEE2;fontColor=#1A1A1A;" parent="F3-TGmnj43T6yVich3fg-363" vertex="1">
                    <mxGeometry y="240" width="180" height="30" as="geometry"/>
                </mxCell>
                <mxCell id="F3-TGmnj43T6yVich3fg-386" value="" style="shape=partialRectangle;connectable=0;fillColor=none;top=0;left=0;bottom=0;right=0;editable=1;overflow=hidden;whiteSpace=wrap;html=1;labelBackgroundColor=none;strokeColor=#D0CEE2;fontColor=#1A1A1A;" parent="F3-TGmnj43T6yVich3fg-385" vertex="1">
                    <mxGeometry width="30" height="30" as="geometry">
                        <mxRectangle width="30" height="30" as="alternateBounds"/>
                    </mxGeometry>
                </mxCell>
                <mxCell id="F3-TGmnj43T6yVich3fg-387" value="NO_REF_GL" style="shape=partialRectangle;connectable=0;fillColor=none;top=0;left=0;bottom=0;right=0;align=left;spacingLeft=6;overflow=hidden;whiteSpace=wrap;html=1;labelBackgroundColor=none;strokeColor=#D0CEE2;fontColor=#1A1A1A;" parent="F3-TGmnj43T6yVich3fg-385" vertex="1">
                    <mxGeometry x="30" width="150" height="30" as="geometry">
                        <mxRectangle width="150" height="30" as="alternateBounds"/>
                    </mxGeometry>
                </mxCell>
                <mxCell id="F3-TGmnj43T6yVich3fg-401" value="" style="edgeStyle=entityRelationEdgeStyle;fontSize=12;html=1;endArrow=ERmandOne;startArrow=ERmandOne;rounded=0;strokeColor=#736CA8;fontColor=#1A1A1A;exitX=-0.033;exitY=0.46;exitDx=0;exitDy=0;exitPerimeter=0;" parent="1" source="F3-TGmnj43T6yVich3fg-364" target="F3-TGmnj43T6yVich3fg-330" edge="1">
                    <mxGeometry width="100" height="100" relative="1" as="geometry">
                        <mxPoint x="670" y="1235" as="sourcePoint"/>
                        <mxPoint x="530" y="-400" as="targetPoint"/>
                    </mxGeometry>
                </mxCell>
                <mxCell id="TbUwWiARrrkl1fm4_tW4-6" value="" style="edgeStyle=orthogonalEdgeStyle;fontSize=12;html=1;endArrow=ERoneToMany;rounded=0;entryX=0;entryY=0.5;entryDx=0;entryDy=0;exitX=1;exitY=0.5;exitDx=0;exitDy=0;" parent="1" source="F3-TGmnj43T6yVich3fg-31" target="F3-TGmnj43T6yVich3fg-345" edge="1">
                    <mxGeometry width="100" height="100" relative="1" as="geometry">
                        <mxPoint x="530" y="1150" as="sourcePoint"/>
                        <mxPoint x="630" y="1050" as="targetPoint"/>
                    </mxGeometry>
                </mxCell>
                <mxCell id="TbUwWiARrrkl1fm4_tW4-7" value="" style="edgeStyle=entityRelationEdgeStyle;fontSize=12;html=1;endArrow=ERoneToMany;rounded=0;exitX=1;exitY=0.5;exitDx=0;exitDy=0;" parent="1" source="F3-TGmnj43T6yVich3fg-31" target="F3-TGmnj43T6yVich3fg-212" edge="1">
                    <mxGeometry width="100" height="100" relative="1" as="geometry">
                        <mxPoint x="530" y="200" as="sourcePoint"/>
                        <mxPoint x="630" y="100" as="targetPoint"/>
                    </mxGeometry>
                </mxCell>
                <mxCell id="TbUwWiARrrkl1fm4_tW4-9" value="" style="edgeStyle=entityRelationEdgeStyle;fontSize=12;html=1;endArrow=ERoneToMany;rounded=0;entryX=1;entryY=0.5;entryDx=0;entryDy=0;" parent="1" source="F3-TGmnj43T6yVich3fg-31" target="F3-TGmnj43T6yVich3fg-166" edge="1">
                    <mxGeometry width="100" height="100" relative="1" as="geometry">
                        <mxPoint x="530" y="850" as="sourcePoint"/>
                        <mxPoint x="630" y="750" as="targetPoint"/>
                    </mxGeometry>
                </mxCell>
                <mxCell id="TbUwWiARrrkl1fm4_tW4-10" value="" style="edgeStyle=entityRelationEdgeStyle;fontSize=12;html=1;endArrow=ERmandOne;startArrow=ERmandOne;rounded=0;entryX=0;entryY=0.5;entryDx=0;entryDy=0;" parent="1" source="F3-TGmnj43T6yVich3fg-299" target="F3-TGmnj43T6yVich3fg-31" edge="1">
                    <mxGeometry width="100" height="100" relative="1" as="geometry">
                        <mxPoint x="530" y="850" as="sourcePoint"/>
                        <mxPoint x="520" y="560" as="targetPoint"/>
                    </mxGeometry>
                </mxCell>
                <mxCell id="2" value="ARE_T_TRANSFER" style="shape=table;startSize=50;container=1;collapsible=1;childLayout=tableLayout;fixedRows=1;rowLines=0;fontStyle=1;align=center;resizeLast=1;html=1;labelBackgroundColor=none;fillColor=#5D7F99;strokeColor=#D0CEE2;fontColor=#1A1A1A;" vertex="1" parent="1">
                    <mxGeometry x="127" y="-237" width="180" height="535" as="geometry">
                        <mxRectangle x="70" y="550" width="200" height="30" as="alternateBounds"/>
                    </mxGeometry>
                </mxCell>
                <mxCell id="3" value="" style="shape=tableRow;horizontal=0;startSize=0;swimlaneHead=0;swimlaneBody=0;fillColor=none;collapsible=0;dropTarget=0;points=[[0,0.5],[1,0.5]];portConstraint=eastwest;top=0;left=0;right=0;bottom=1;labelBackgroundColor=none;strokeColor=#D0CEE2;fontColor=#1A1A1A;" vertex="1" parent="2">
                    <mxGeometry y="50" width="180" height="30" as="geometry"/>
                </mxCell>
                <mxCell id="4" value="PK" style="shape=partialRectangle;connectable=0;fillColor=none;top=0;left=0;bottom=0;right=0;fontStyle=1;overflow=hidden;whiteSpace=wrap;html=1;labelBackgroundColor=none;strokeColor=#D0CEE2;fontColor=#1A1A1A;" vertex="1" parent="3">
                    <mxGeometry width="30" height="30" as="geometry">
                        <mxRectangle width="30" height="30" as="alternateBounds"/>
                    </mxGeometry>
                </mxCell>
                <mxCell id="5" value="ID" style="shape=partialRectangle;connectable=0;fillColor=none;top=0;left=0;bottom=0;right=0;align=left;spacingLeft=6;fontStyle=5;overflow=hidden;whiteSpace=wrap;html=1;labelBackgroundColor=none;strokeColor=#D0CEE2;fontColor=#1A1A1A;" vertex="1" parent="3">
                    <mxGeometry x="30" width="150" height="30" as="geometry">
                        <mxRectangle width="150" height="30" as="alternateBounds"/>
                    </mxGeometry>
                </mxCell>
                <mxCell id="6" value="" style="shape=tableRow;horizontal=0;startSize=0;swimlaneHead=0;swimlaneBody=0;fillColor=none;collapsible=0;dropTarget=0;points=[[0,0.5],[1,0.5]];portConstraint=eastwest;top=0;left=0;right=0;bottom=0;labelBackgroundColor=none;strokeColor=#D0CEE2;fontColor=#1A1A1A;" vertex="1" parent="2">
                    <mxGeometry y="80" width="180" height="30" as="geometry"/>
                </mxCell>
                <mxCell id="7" value="" style="shape=partialRectangle;connectable=0;fillColor=none;top=0;left=0;bottom=0;right=0;editable=1;overflow=hidden;whiteSpace=wrap;html=1;labelBackgroundColor=none;strokeColor=#D0CEE2;fontColor=#1A1A1A;" vertex="1" parent="6">
                    <mxGeometry width="30" height="30" as="geometry">
                        <mxRectangle width="30" height="30" as="alternateBounds"/>
                    </mxGeometry>
                </mxCell>
                <mxCell id="8" value="ID_ASAL&lt;span style=&quot;&quot;&gt;&#9;&lt;/span&gt;" style="shape=partialRectangle;connectable=0;fillColor=none;top=0;left=0;bottom=0;right=0;align=left;spacingLeft=6;overflow=hidden;whiteSpace=wrap;html=1;labelBackgroundColor=none;strokeColor=#D0CEE2;fontColor=#1A1A1A;" vertex="1" parent="6">
                    <mxGeometry x="30" width="150" height="30" as="geometry">
                        <mxRectangle width="150" height="30" as="alternateBounds"/>
                    </mxGeometry>
                </mxCell>
                <mxCell id="9" value="" style="shape=tableRow;horizontal=0;startSize=0;swimlaneHead=0;swimlaneBody=0;fillColor=none;collapsible=0;dropTarget=0;points=[[0,0.5],[1,0.5]];portConstraint=eastwest;top=0;left=0;right=0;bottom=0;labelBackgroundColor=none;strokeColor=#D0CEE2;fontColor=#1A1A1A;" vertex="1" parent="2">
                    <mxGeometry y="110" width="180" height="30" as="geometry"/>
                </mxCell>
                <mxCell id="10" value="" style="shape=partialRectangle;connectable=0;fillColor=none;top=0;left=0;bottom=0;right=0;editable=1;overflow=hidden;whiteSpace=wrap;html=1;labelBackgroundColor=none;strokeColor=#D0CEE2;fontColor=#1A1A1A;" vertex="1" parent="9">
                    <mxGeometry width="30" height="30" as="geometry">
                        <mxRectangle width="30" height="30" as="alternateBounds"/>
                    </mxGeometry>
                </mxCell>
                <mxCell id="11" value="JENIS_TRANSFER&lt;span style=&quot;&quot;&gt;&#9;&lt;/span&gt;" style="shape=partialRectangle;connectable=0;fillColor=none;top=0;left=0;bottom=0;right=0;align=left;spacingLeft=6;overflow=hidden;whiteSpace=wrap;html=1;labelBackgroundColor=none;strokeColor=#D0CEE2;fontColor=#1A1A1A;" vertex="1" parent="9">
                    <mxGeometry x="30" width="150" height="30" as="geometry">
                        <mxRectangle width="150" height="30" as="alternateBounds"/>
                    </mxGeometry>
                </mxCell>
                <mxCell id="12" value="" style="shape=tableRow;horizontal=0;startSize=0;swimlaneHead=0;swimlaneBody=0;fillColor=none;collapsible=0;dropTarget=0;points=[[0,0.5],[1,0.5]];portConstraint=eastwest;top=0;left=0;right=0;bottom=0;labelBackgroundColor=none;strokeColor=#D0CEE2;fontColor=#1A1A1A;" vertex="1" parent="2">
                    <mxGeometry y="140" width="180" height="30" as="geometry"/>
                </mxCell>
                <mxCell id="13" value="" style="shape=partialRectangle;connectable=0;fillColor=none;top=0;left=0;bottom=0;right=0;editable=1;overflow=hidden;whiteSpace=wrap;html=1;labelBackgroundColor=none;strokeColor=#D0CEE2;fontColor=#1A1A1A;" vertex="1" parent="12">
                    <mxGeometry width="30" height="30" as="geometry">
                        <mxRectangle width="30" height="30" as="alternateBounds"/>
                    </mxGeometry>
                </mxCell>
                <mxCell id="14" value="KETERANGAN&lt;span style=&quot;&quot;&gt;&#9;&lt;/span&gt;" style="shape=partialRectangle;connectable=0;fillColor=none;top=0;left=0;bottom=0;right=0;align=left;spacingLeft=6;overflow=hidden;whiteSpace=wrap;html=1;labelBackgroundColor=none;strokeColor=#D0CEE2;fontColor=#1A1A1A;" vertex="1" parent="12">
                    <mxGeometry x="30" width="150" height="30" as="geometry">
                        <mxRectangle width="150" height="30" as="alternateBounds"/>
                    </mxGeometry>
                </mxCell>
                <mxCell id="15" value="" style="shape=tableRow;horizontal=0;startSize=0;swimlaneHead=0;swimlaneBody=0;fillColor=none;collapsible=0;dropTarget=0;points=[[0,0.5],[1,0.5]];portConstraint=eastwest;top=0;left=0;right=0;bottom=0;labelBackgroundColor=none;strokeColor=#D0CEE2;fontColor=#1A1A1A;" vertex="1" parent="2">
                    <mxGeometry y="170" width="180" height="30" as="geometry"/>
                </mxCell>
                <mxCell id="16" value="" style="shape=partialRectangle;connectable=0;fillColor=none;top=0;left=0;bottom=0;right=0;editable=1;overflow=hidden;whiteSpace=wrap;html=1;labelBackgroundColor=none;strokeColor=#D0CEE2;fontColor=#1A1A1A;" vertex="1" parent="15">
                    <mxGeometry width="30" height="30" as="geometry">
                        <mxRectangle width="30" height="30" as="alternateBounds"/>
                    </mxGeometry>
                </mxCell>
                <mxCell id="17" value="KODE_PERIODE&lt;span style=&quot;&quot;&gt;&#9;&lt;/span&gt;" style="shape=partialRectangle;connectable=0;fillColor=none;top=0;left=0;bottom=0;right=0;align=left;spacingLeft=6;overflow=hidden;whiteSpace=wrap;html=1;labelBackgroundColor=none;strokeColor=#D0CEE2;fontColor=#1A1A1A;" vertex="1" parent="15">
                    <mxGeometry x="30" width="150" height="30" as="geometry">
                        <mxRectangle width="150" height="30" as="alternateBounds"/>
                    </mxGeometry>
                </mxCell>
                <mxCell id="18" value="" style="shape=tableRow;horizontal=0;startSize=0;swimlaneHead=0;swimlaneBody=0;fillColor=none;collapsible=0;dropTarget=0;points=[[0,0.5],[1,0.5]];portConstraint=eastwest;top=0;left=0;right=0;bottom=0;labelBackgroundColor=none;strokeColor=#D0CEE2;fontColor=#1A1A1A;" vertex="1" parent="2">
                    <mxGeometry y="200" width="180" height="30" as="geometry"/>
                </mxCell>
                <mxCell id="19" value="" style="shape=partialRectangle;connectable=0;fillColor=none;top=0;left=0;bottom=0;right=0;editable=1;overflow=hidden;whiteSpace=wrap;html=1;labelBackgroundColor=none;strokeColor=#D0CEE2;fontColor=#1A1A1A;" vertex="1" parent="18">
                    <mxGeometry width="30" height="30" as="geometry">
                        <mxRectangle width="30" height="30" as="alternateBounds"/>
                    </mxGeometry>
                </mxCell>
                <mxCell id="20" value="KODE_SATKER&lt;span style=&quot;&quot;&gt;&#9;&lt;/span&gt;" style="shape=partialRectangle;connectable=0;fillColor=none;top=0;left=0;bottom=0;right=0;align=left;spacingLeft=6;overflow=hidden;whiteSpace=wrap;html=1;labelBackgroundColor=none;strokeColor=#D0CEE2;fontColor=#1A1A1A;" vertex="1" parent="18">
                    <mxGeometry x="30" width="150" height="30" as="geometry">
                        <mxRectangle width="150" height="30" as="alternateBounds"/>
                    </mxGeometry>
                </mxCell>
                <mxCell id="24" value="" style="shape=tableRow;horizontal=0;startSize=0;swimlaneHead=0;swimlaneBody=0;fillColor=none;collapsible=0;dropTarget=0;points=[[0,0.5],[1,0.5]];portConstraint=eastwest;top=0;left=0;right=0;bottom=0;labelBackgroundColor=none;strokeColor=#D0CEE2;fontColor=#1A1A1A;" vertex="1" parent="2">
                    <mxGeometry y="230" width="180" height="30" as="geometry"/>
                </mxCell>
                <mxCell id="25" value="" style="shape=partialRectangle;connectable=0;fillColor=none;top=0;left=0;bottom=0;right=0;editable=1;overflow=hidden;whiteSpace=wrap;html=1;labelBackgroundColor=none;strokeColor=#D0CEE2;fontColor=#1A1A1A;" vertex="1" parent="24">
                    <mxGeometry width="30" height="30" as="geometry">
                        <mxRectangle width="30" height="30" as="alternateBounds"/>
                    </mxGeometry>
                </mxCell>
                <mxCell id="26" value="KODE_SATKER_TUJUAN_ASAL&lt;span style=&quot;&quot;&gt;&#9;&lt;/span&gt;" style="shape=partialRectangle;connectable=0;fillColor=none;top=0;left=0;bottom=0;right=0;align=left;spacingLeft=6;overflow=hidden;whiteSpace=wrap;html=1;labelBackgroundColor=none;strokeColor=#D0CEE2;fontColor=#1A1A1A;" vertex="1" parent="24">
                    <mxGeometry x="30" width="150" height="30" as="geometry">
                        <mxRectangle width="150" height="30" as="alternateBounds"/>
                    </mxGeometry>
                </mxCell>
                <mxCell id="27" value="" style="shape=tableRow;horizontal=0;startSize=0;swimlaneHead=0;swimlaneBody=0;fillColor=none;collapsible=0;dropTarget=0;points=[[0,0.5],[1,0.5]];portConstraint=eastwest;top=0;left=0;right=0;bottom=0;labelBackgroundColor=none;strokeColor=#D0CEE2;fontColor=#1A1A1A;" vertex="1" parent="2">
                    <mxGeometry y="260" width="180" height="30" as="geometry"/>
                </mxCell>
                <mxCell id="28" value="" style="shape=partialRectangle;connectable=0;fillColor=none;top=0;left=0;bottom=0;right=0;editable=1;overflow=hidden;whiteSpace=wrap;html=1;labelBackgroundColor=none;strokeColor=#D0CEE2;fontColor=#1A1A1A;" vertex="1" parent="27">
                    <mxGeometry width="30" height="30" as="geometry">
                        <mxRectangle width="30" height="30" as="alternateBounds"/>
                    </mxGeometry>
                </mxCell>
                <mxCell id="29" value="NILAI_TRANSFER&lt;span style=&quot;&quot;&gt;&#9;&lt;/span&gt;" style="shape=partialRectangle;connectable=0;fillColor=none;top=0;left=0;bottom=0;right=0;align=left;spacingLeft=6;overflow=hidden;whiteSpace=wrap;html=1;labelBackgroundColor=none;strokeColor=#D0CEE2;fontColor=#1A1A1A;" vertex="1" parent="27">
                    <mxGeometry x="30" width="150" height="30" as="geometry">
                        <mxRectangle width="150" height="30" as="alternateBounds"/>
                    </mxGeometry>
                </mxCell>
                <mxCell id="33" value="" style="shape=tableRow;horizontal=0;startSize=0;swimlaneHead=0;swimlaneBody=0;fillColor=none;collapsible=0;dropTarget=0;points=[[0,0.5],[1,0.5]];portConstraint=eastwest;top=0;left=0;right=0;bottom=0;labelBackgroundColor=none;strokeColor=#D0CEE2;fontColor=#1A1A1A;" vertex="1" parent="2">
                    <mxGeometry y="290" width="180" height="30" as="geometry"/>
                </mxCell>
                <mxCell id="34" value="" style="shape=partialRectangle;connectable=0;fillColor=none;top=0;left=0;bottom=0;right=0;editable=1;overflow=hidden;whiteSpace=wrap;html=1;labelBackgroundColor=none;strokeColor=#D0CEE2;fontColor=#1A1A1A;" vertex="1" parent="33">
                    <mxGeometry width="30" height="30" as="geometry">
                        <mxRectangle width="30" height="30" as="alternateBounds"/>
                    </mxGeometry>
                </mxCell>
                <mxCell id="35" value="NO_REF_GL&lt;span style=&quot;&quot;&gt;&#9;&lt;/span&gt;" style="shape=partialRectangle;connectable=0;fillColor=none;top=0;left=0;bottom=0;right=0;align=left;spacingLeft=6;overflow=hidden;whiteSpace=wrap;html=1;labelBackgroundColor=none;strokeColor=#D0CEE2;fontColor=#1A1A1A;" vertex="1" parent="33">
                    <mxGeometry x="30" width="150" height="30" as="geometry">
                        <mxRectangle width="150" height="30" as="alternateBounds"/>
                    </mxGeometry>
                </mxCell>
                <mxCell id="36" value="" style="shape=tableRow;horizontal=0;startSize=0;swimlaneHead=0;swimlaneBody=0;fillColor=none;collapsible=0;dropTarget=0;points=[[0,0.5],[1,0.5]];portConstraint=eastwest;top=0;left=0;right=0;bottom=0;labelBackgroundColor=none;strokeColor=#D0CEE2;fontColor=#1A1A1A;" vertex="1" parent="2">
                    <mxGeometry y="320" width="180" height="30" as="geometry"/>
                </mxCell>
                <mxCell id="37" value="" style="shape=partialRectangle;connectable=0;fillColor=none;top=0;left=0;bottom=0;right=0;editable=1;overflow=hidden;whiteSpace=wrap;html=1;labelBackgroundColor=none;strokeColor=#D0CEE2;fontColor=#1A1A1A;" vertex="1" parent="36">
                    <mxGeometry width="30" height="30" as="geometry">
                        <mxRectangle width="30" height="30" as="alternateBounds"/>
                    </mxGeometry>
                </mxCell>
                <mxCell id="38" value="NO_TRANSFER&lt;span style=&quot;&quot;&gt;&#9;&lt;/span&gt;" style="shape=partialRectangle;connectable=0;fillColor=none;top=0;left=0;bottom=0;right=0;align=left;spacingLeft=6;overflow=hidden;whiteSpace=wrap;html=1;labelBackgroundColor=none;strokeColor=#D0CEE2;fontColor=#1A1A1A;" vertex="1" parent="36">
                    <mxGeometry x="30" width="150" height="30" as="geometry">
                        <mxRectangle width="150" height="30" as="alternateBounds"/>
                    </mxGeometry>
                </mxCell>
                <mxCell id="39" value="" style="shape=tableRow;horizontal=0;startSize=0;swimlaneHead=0;swimlaneBody=0;fillColor=none;collapsible=0;dropTarget=0;points=[[0,0.5],[1,0.5]];portConstraint=eastwest;top=0;left=0;right=0;bottom=0;labelBackgroundColor=none;strokeColor=#D0CEE2;fontColor=#1A1A1A;" vertex="1" parent="2">
                    <mxGeometry y="350" width="180" height="35" as="geometry"/>
                </mxCell>
                <mxCell id="40" value="" style="shape=partialRectangle;connectable=0;fillColor=none;top=0;left=0;bottom=0;right=0;editable=1;overflow=hidden;whiteSpace=wrap;html=1;labelBackgroundColor=none;strokeColor=#D0CEE2;fontColor=#1A1A1A;" vertex="1" parent="39">
                    <mxGeometry width="30" height="35" as="geometry">
                        <mxRectangle width="30" height="35" as="alternateBounds"/>
                    </mxGeometry>
                </mxCell>
                <mxCell id="41" value="TAHUN_ANGGARAN&lt;span style=&quot;&quot;&gt;&#9;&lt;/span&gt;" style="shape=partialRectangle;connectable=0;fillColor=none;top=0;left=0;bottom=0;right=0;align=left;spacingLeft=6;overflow=hidden;whiteSpace=wrap;html=1;labelBackgroundColor=none;strokeColor=#D0CEE2;fontColor=#1A1A1A;" vertex="1" parent="39">
                    <mxGeometry x="30" width="150" height="35" as="geometry">
                        <mxRectangle width="150" height="35" as="alternateBounds"/>
                    </mxGeometry>
                </mxCell>
                <mxCell id="42" value="" style="shape=tableRow;horizontal=0;startSize=0;swimlaneHead=0;swimlaneBody=0;fillColor=none;collapsible=0;dropTarget=0;points=[[0,0.5],[1,0.5]];portConstraint=eastwest;top=0;left=0;right=0;bottom=0;labelBackgroundColor=none;strokeColor=#D0CEE2;fontColor=#1A1A1A;" vertex="1" parent="2">
                    <mxGeometry y="385" width="180" height="30" as="geometry"/>
                </mxCell>
                <mxCell id="43" value="" style="shape=partialRectangle;connectable=0;fillColor=none;top=0;left=0;bottom=0;right=0;editable=1;overflow=hidden;whiteSpace=wrap;html=1;labelBackgroundColor=none;strokeColor=#D0CEE2;fontColor=#1A1A1A;" vertex="1" parent="42">
                    <mxGeometry width="30" height="30" as="geometry">
                        <mxRectangle width="30" height="30" as="alternateBounds"/>
                    </mxGeometry>
                </mxCell>
                <mxCell id="44" value="TANGGAL_TRANSFER&lt;span style=&quot;&quot;&gt;&#9;&lt;/span&gt;" style="shape=partialRectangle;connectable=0;fillColor=none;top=0;left=0;bottom=0;right=0;align=left;spacingLeft=6;overflow=hidden;whiteSpace=wrap;html=1;labelBackgroundColor=none;strokeColor=#D0CEE2;fontColor=#1A1A1A;" vertex="1" parent="42">
                    <mxGeometry x="30" width="150" height="30" as="geometry">
                        <mxRectangle width="150" height="30" as="alternateBounds"/>
                    </mxGeometry>
                </mxCell>
                <mxCell id="45" value="" style="shape=tableRow;horizontal=0;startSize=0;swimlaneHead=0;swimlaneBody=0;fillColor=none;collapsible=0;dropTarget=0;points=[[0,0.5],[1,0.5]];portConstraint=eastwest;top=0;left=0;right=0;bottom=0;labelBackgroundColor=none;strokeColor=#D0CEE2;fontColor=#1A1A1A;" vertex="1" parent="2">
                    <mxGeometry y="415" width="180" height="30" as="geometry"/>
                </mxCell>
                <mxCell id="46" value="" style="shape=partialRectangle;connectable=0;fillColor=none;top=0;left=0;bottom=0;right=0;editable=1;overflow=hidden;whiteSpace=wrap;html=1;labelBackgroundColor=none;strokeColor=#D0CEE2;fontColor=#1A1A1A;" vertex="1" parent="45">
                    <mxGeometry width="30" height="30" as="geometry">
                        <mxRectangle width="30" height="30" as="alternateBounds"/>
                    </mxGeometry>
                </mxCell>
                <mxCell id="47" value="ID_PIUTANG&lt;span style=&quot;&quot;&gt;&#9;&lt;/span&gt;" style="shape=partialRectangle;connectable=0;fillColor=none;top=0;left=0;bottom=0;right=0;align=left;spacingLeft=6;overflow=hidden;whiteSpace=wrap;html=1;labelBackgroundColor=none;strokeColor=#D0CEE2;fontColor=#1A1A1A;" vertex="1" parent="45">
                    <mxGeometry x="30" width="150" height="30" as="geometry">
                        <mxRectangle width="150" height="30" as="alternateBounds"/>
                    </mxGeometry>
                </mxCell>
                <mxCell id="48" value="" style="shape=tableRow;horizontal=0;startSize=0;swimlaneHead=0;swimlaneBody=0;fillColor=none;collapsible=0;dropTarget=0;points=[[0,0.5],[1,0.5]];portConstraint=eastwest;top=0;left=0;right=0;bottom=0;labelBackgroundColor=none;strokeColor=#D0CEE2;fontColor=#1A1A1A;" vertex="1" parent="2">
                    <mxGeometry y="445" width="180" height="30" as="geometry"/>
                </mxCell>
                <mxCell id="49" value="" style="shape=partialRectangle;connectable=0;fillColor=none;top=0;left=0;bottom=0;right=0;editable=1;overflow=hidden;whiteSpace=wrap;html=1;labelBackgroundColor=none;strokeColor=#D0CEE2;fontColor=#1A1A1A;" vertex="1" parent="48">
                    <mxGeometry width="30" height="30" as="geometry">
                        <mxRectangle width="30" height="30" as="alternateBounds"/>
                    </mxGeometry>
                </mxCell>
                <mxCell id="50" value="NO_REF_GL_PENYISIHAN&lt;span style=&quot;&quot;&gt;&#9;&lt;/span&gt;" style="shape=partialRectangle;connectable=0;fillColor=none;top=0;left=0;bottom=0;right=0;align=left;spacingLeft=6;overflow=hidden;whiteSpace=wrap;html=1;labelBackgroundColor=none;strokeColor=#D0CEE2;fontColor=#1A1A1A;" vertex="1" parent="48">
                    <mxGeometry x="30" width="150" height="30" as="geometry">
                        <mxRectangle width="150" height="30" as="alternateBounds"/>
                    </mxGeometry>
                </mxCell>
                <mxCell id="51" value="" style="shape=tableRow;horizontal=0;startSize=0;swimlaneHead=0;swimlaneBody=0;fillColor=none;collapsible=0;dropTarget=0;points=[[0,0.5],[1,0.5]];portConstraint=eastwest;top=0;left=0;right=0;bottom=0;labelBackgroundColor=none;strokeColor=#D0CEE2;fontColor=#1A1A1A;" vertex="1" parent="2">
                    <mxGeometry y="475" width="180" height="30" as="geometry"/>
                </mxCell>
                <mxCell id="52" value="" style="shape=partialRectangle;connectable=0;fillColor=none;top=0;left=0;bottom=0;right=0;editable=1;overflow=hidden;whiteSpace=wrap;html=1;labelBackgroundColor=none;strokeColor=#D0CEE2;fontColor=#1A1A1A;" vertex="1" parent="51">
                    <mxGeometry width="30" height="30" as="geometry">
                        <mxRectangle width="30" height="30" as="alternateBounds"/>
                    </mxGeometry>
                </mxCell>
                <mxCell id="53" value="MUTASI_PENYISIHAN&lt;span style=&quot;&quot;&gt;&#9;&lt;/span&gt;" style="shape=partialRectangle;connectable=0;fillColor=none;top=0;left=0;bottom=0;right=0;align=left;spacingLeft=6;overflow=hidden;whiteSpace=wrap;html=1;labelBackgroundColor=none;strokeColor=#D0CEE2;fontColor=#1A1A1A;" vertex="1" parent="51">
                    <mxGeometry x="30" width="150" height="30" as="geometry">
                        <mxRectangle width="150" height="30" as="alternateBounds"/>
                    </mxGeometry>
                </mxCell>
                <mxCell id="54" value="" style="shape=tableRow;horizontal=0;startSize=0;swimlaneHead=0;swimlaneBody=0;fillColor=none;collapsible=0;dropTarget=0;points=[[0,0.5],[1,0.5]];portConstraint=eastwest;top=0;left=0;right=0;bottom=0;labelBackgroundColor=none;strokeColor=#D0CEE2;fontColor=#1A1A1A;" vertex="1" parent="2">
                    <mxGeometry y="505" width="180" height="30" as="geometry"/>
                </mxCell>
                <mxCell id="55" value="" style="shape=partialRectangle;connectable=0;fillColor=none;top=0;left=0;bottom=0;right=0;editable=1;overflow=hidden;whiteSpace=wrap;html=1;labelBackgroundColor=none;strokeColor=#D0CEE2;fontColor=#1A1A1A;" vertex="1" parent="54">
                    <mxGeometry width="30" height="30" as="geometry">
                        <mxRectangle width="30" height="30" as="alternateBounds"/>
                    </mxGeometry>
                </mxCell>
                <mxCell id="56" value="NO_DOK_MANUAL&lt;span style=&quot;&quot;&gt;&#9;&lt;/span&gt;" style="shape=partialRectangle;connectable=0;fillColor=none;top=0;left=0;bottom=0;right=0;align=left;spacingLeft=6;overflow=hidden;whiteSpace=wrap;html=1;labelBackgroundColor=none;strokeColor=#D0CEE2;fontColor=#1A1A1A;" vertex="1" parent="54">
                    <mxGeometry x="30" width="150" height="30" as="geometry">
                        <mxRectangle width="150" height="30" as="alternateBounds"/>
                    </mxGeometry>
                </mxCell>
                <mxCell id="68" style="edgeStyle=orthogonalEdgeStyle;html=1;exitX=1;exitY=0.5;exitDx=0;exitDy=0;entryX=0;entryY=0.5;entryDx=0;entryDy=0;" edge="1" parent="1" source="45" target="F3-TGmnj43T6yVich3fg-31">
                    <mxGeometry relative="1" as="geometry"/>
                </mxCell>
            </root>
        </mxGraphModel>
    </diagram>
</mxfile>